<?xml version="1.0" encoding="UTF-8"?>
<svg width="500" height="500" viewBox="0 0 500 500" fill="none" xmlns="http://www.w3.org/2000/svg">
<path fill-rule="evenodd" clip-rule="evenodd" d="M168.625 206.665C168.772 205.121 168.926 203.494 168.926 201.979L168.993 202.318C168.993 197.3 168.183 192.689 165.278 188.959C164.67 188.145 163.927 186.721 163.184 185.026C164.94 184.958 166.629 184.416 167.98 182.856C172.843 177.364 182.098 172.482 187.907 172.482C190.469 172.482 192.702 170.504 195.238 168.257C198.454 165.41 202.156 162.131 207.631 161.903C210.678 161.777 216.123 161.145 222.281 160.431C235.922 158.848 253.062 156.86 255.389 159.055C257.551 161.096 262.511 159.133 266.881 157.404C269.336 156.432 271.604 155.535 273.086 155.461C274.789 155.405 276.919 155.048 278.989 154.701C281.928 154.208 284.748 153.735 286.056 154.173C286.119 154.193 286.19 154.216 286.267 154.241C288.007 154.8 293.226 156.479 298.012 156.479C296.864 164.005 295.851 173.363 297.877 176.414C300.849 180.89 297.067 188.484 294.094 189.976C292.725 190.648 291.506 192.394 290.309 194.11C288.848 196.202 287.419 198.249 285.786 198.249C283.797 198.249 284.47 203.319 286.711 207.344C261.666 222.963 245 250.761 245 282.451C245 323.102 272.423 357.348 309.779 367.698L288.285 381.13L265.048 399.981C265.048 399.981 249.849 405.406 245.391 406.288C240.933 407.169 232.895 409 232.895 409C232.895 409 232.895 399.1 226.613 395.506C220.33 391.912 212.292 391.031 212.292 391.031C212.292 391.031 207.834 382.961 204.254 379.367C200.674 375.774 87.1234 300.37 80.8413 296.776C79.4903 295.962 78.7473 295.216 78.342 294.47C78.3004 292.742 78.2558 291.022 78.2132 289.373C78.0482 283.001 77.9108 277.69 78.0718 277.043C78.4771 275.348 95.4995 265.38 98.4042 263.685C99.6253 262.972 101.288 263.003 102.806 263.03C104.897 263.069 106.713 263.102 106.713 261.176C106.713 258.95 109.895 258.946 113.234 258.941C114.88 258.938 116.565 258.936 117.926 258.667C122.046 257.786 124.546 254.87 124.546 251.14C124.546 248.21 128.133 248.084 131.472 247.968C132.383 247.936 133.274 247.905 134.07 247.818C136.071 247.598 136.877 246.533 137.585 245.597C138.191 244.795 138.726 244.088 139.879 244.088C141.603 244.088 141.56 242.281 141.5 239.803C141.473 238.688 141.442 237.437 141.568 236.154C141.907 232.698 141.915 232.698 144.117 232.791C144.55 232.81 145.067 232.832 145.689 232.832C149.471 232.832 153.187 230.73 153.187 228.221C153.187 226.222 163.434 226.891 168.865 227.246C170.25 227.337 171.322 227.407 171.83 227.407C174.33 227.407 175.14 224.491 174.735 222.389C174.262 220.287 172.235 214.049 169.736 213.642C167.992 213.358 168.288 210.233 168.625 206.665ZM294.613 214.272C296.323 216.271 296.323 218.546 296.323 220.084C296.323 221.263 298.426 222.443 300.74 223.741C302.817 224.907 305.064 226.168 306.118 227.61C308.347 230.662 312.13 244.97 312.13 250.259C312.13 251.683 312.603 252.768 313.278 253.649C311.792 254.666 310.576 255.548 310.441 256.362C310.21 257.445 311.342 259.322 312.808 261.754C313.912 263.586 315.206 265.733 316.251 268.092C317.528 270.978 316.774 273.395 316.073 275.64C315.44 277.668 314.851 279.555 315.845 281.519C317.872 285.655 316.791 287.961 314.899 290.198C313.586 291.753 314.097 293.994 314.532 295.9C314.723 296.738 314.899 297.511 314.899 298.132C314.899 299.129 315.532 300.37 316.09 301.464C316.67 302.603 317.17 303.583 316.791 303.964C316.648 304.107 316.354 304.36 315.972 304.687C314.377 306.056 311.252 308.737 311.252 310.27C311.252 311.372 312.185 312.451 313.523 313.999C314.49 315.117 315.668 316.479 316.858 318.271C318.749 321.118 318.54 323.091 318.33 325.074C318.225 326.067 318.119 327.063 318.277 328.171C318.75 331.426 323.411 333.325 327.193 333.325C329.148 333.325 330.706 334.085 332.211 334.82C333.62 335.508 334.983 336.173 336.583 336.173C339.487 336.173 341.311 340.987 343 347.022H342.865L321.987 360.07C284.094 354.521 255 321.884 255 282.451C255 253.253 270.95 227.781 294.613 214.272Z" fill="#E41A3A"/>
<g clip-path="url(#clip0_936_908)">
<path fill-rule="evenodd" clip-rule="evenodd" d="M411.901 282.451C411.901 325.778 376.778 360.901 333.451 360.901C290.124 360.901 255 325.778 255 282.451C255 239.124 290.124 204 333.451 204C376.778 204 411.901 239.124 411.901 282.451Z" fill="#E41A3A"/>
<path fill-rule="evenodd" clip-rule="evenodd" d="M411.901 282.451C411.901 325.778 376.778 360.901 333.451 360.901C290.124 360.901 255 325.778 255 282.451C255 239.124 290.124 204 333.451 204C376.778 204 411.901 239.124 411.901 282.451Z" fill="#E41A3A"/>
<path d="M284.504 282.799V276.821H287.817V261.071H284.504V255.093H296.364L296.336 276.821H299.607V282.799H284.504Z" fill="white"/>
<path d="M303.364 282.799V255.093H310.469L317.617 265.393L318.87 267.773L319.072 267.655V255.093H326.867V282.799H319.594L312.202 272.137L311.353 270.439L311.152 270.522V282.799H303.357H303.364Z" fill="white"/>
<path d="M343.103 283.204C341.328 283.204 339.672 282.932 338.134 282.396C336.596 281.861 335.252 281.067 334.097 280.03C332.942 278.993 332.037 277.72 331.39 276.216C330.743 274.706 330.422 273.001 330.422 271.087V266.807C330.422 264.976 330.756 263.32 331.432 261.838C332.107 260.355 333.032 259.082 334.215 258.024C335.399 256.959 336.756 256.138 338.273 255.56C339.79 254.982 341.391 254.69 343.061 254.69H344.196C345.838 254.69 347.369 254.934 348.782 255.414C350.195 255.901 351.427 256.632 352.478 257.613C353.529 258.594 354.343 259.819 354.92 261.288C355.498 262.756 355.79 264.475 355.79 266.438H347.836C347.836 265.067 347.689 263.981 347.39 263.188C347.091 262.394 346.631 261.831 345.998 261.49C345.365 261.155 344.551 260.982 343.555 260.982C342.936 260.982 342.379 261.086 341.878 261.288C341.377 261.49 340.952 261.768 340.604 262.116C340.256 262.464 339.985 262.888 339.797 263.39C339.609 263.891 339.512 264.434 339.512 265.025V272.862C339.512 273.641 339.665 274.344 339.978 274.964C340.284 275.583 340.744 276.063 341.349 276.397C341.955 276.731 342.685 276.905 343.548 276.905C344.704 276.905 345.622 276.745 346.297 276.418C346.973 276.098 347.453 275.541 347.752 274.762C348.051 273.982 348.197 272.903 348.197 271.532L355.79 271.491C355.79 273.293 355.498 274.922 354.92 276.376C354.343 277.831 353.529 279.063 352.478 280.072C351.427 281.081 350.202 281.854 348.803 282.396C347.404 282.932 345.88 283.204 344.237 283.204H343.11H343.103Z" fill="white"/>
<path d="M369.356 283.203C367.177 283.203 365.298 282.813 363.718 282.034C362.145 281.254 360.941 280.155 360.106 278.742C359.271 277.329 358.854 275.693 358.854 273.835V255.093H367.372V273.87C367.372 274.761 367.685 275.485 368.319 276.048C368.952 276.612 369.725 276.897 370.643 276.897C371.562 276.897 372.327 276.612 372.947 276.048C373.566 275.485 373.879 274.754 373.879 273.87V255.093H382.398V273.835C382.398 275.693 381.911 277.329 380.944 278.742C379.976 280.155 378.64 281.254 376.942 282.034C375.244 282.813 373.295 283.203 371.089 283.203H369.349H369.356Z" fill="white"/>
<path d="M284.504 315.781V288.074H299.37C300.741 288.074 302.008 288.318 303.163 288.798C304.319 289.285 305.244 290.002 305.933 290.956C306.622 291.909 306.963 293.106 306.963 294.533C306.963 295.827 306.748 296.92 306.316 297.825C305.885 298.73 305.321 299.46 304.618 300.024C303.915 300.588 303.149 301.019 302.314 301.319V301.479C302.961 301.639 303.602 301.882 304.235 302.202C304.868 302.523 305.439 302.947 305.954 303.476C306.462 303.998 306.866 304.617 307.165 305.334C307.464 306.051 307.611 306.872 307.611 307.819C307.611 309.406 307.221 310.805 306.441 312.002C305.662 313.199 304.653 314.131 303.414 314.786C302.175 315.447 300.846 315.774 299.412 315.774H284.511L284.504 315.781ZM292.299 298.702H296.941C297.449 298.702 297.853 298.583 298.152 298.34C298.452 298.096 298.66 297.776 298.779 297.372C298.897 296.969 298.96 296.551 298.96 296.12C298.96 295.312 298.765 294.756 298.375 294.442C297.985 294.136 297.505 293.976 296.941 293.976H292.299V298.702ZM292.299 309.566H296.941C297.449 309.566 297.895 309.461 298.271 309.246C298.646 309.03 298.939 308.717 299.141 308.299C299.342 307.881 299.447 307.373 299.447 306.782C299.447 306.246 299.329 305.821 299.106 305.508C298.876 305.202 298.584 304.972 298.215 304.819C297.853 304.673 297.456 304.597 297.025 304.597H292.299V309.566Z" fill="white"/>
<path d="M317.499 315.781V305.16L308.333 288.074H317.868L322.03 297.164H322.232L326.47 288.074H335.156L326.032 305.16V315.781H317.513H317.499Z" fill="white"/>
<path d="M342.34 315.781V294.742H335.394V288.074H357.846V294.742H350.858V315.781H342.34Z" fill="white"/>
<path d="M360.753 315.781V288.074H380.742V294.54H369.077V298.576H379.593V304.757H369.077V309.322H380.749V315.781H360.753Z" fill="white"/>
<path d="M404.349 195.796L378.361 202.635L386.18 208.674L369.12 230.805L379.473 238.761L396.533 216.63L404.352 222.67L404.349 195.796Z" fill="#E41A3A"/>
</g>
<path d="M341 154V176" stroke="#E41A3A" stroke-width="3" stroke-linejoin="round"/>
<path d="M352 165H330" stroke="#E41A3A" stroke-width="3" stroke-linejoin="round"/>
<path d="M106.785 233.601C107.161 235.241 107.042 236.957 106.442 238.529C105.843 240.102 104.791 241.461 103.419 242.434C102.047 243.407 100.417 243.951 98.7362 243.997C97.0552 244.042 95.3984 243.588 93.9759 242.69C92.5513 241.796 91.4243 240.499 90.7382 238.963C90.052 237.427 89.8377 235.722 90.1225 234.064C90.4067 232.406 91.1745 230.87 92.3294 229.649C93.4843 228.427 94.9746 227.575 96.6125 227.199C98.8083 226.717 101.105 227.118 103.009 228.316C104.912 229.513 106.268 231.411 106.785 233.601Z" stroke="#E41A3A" stroke-width="4" stroke-linecap="round" stroke-linejoin="round"/>
<path d="M196.815 133.456L196.815 133.457L198.499 138.375L210.071 123.006L164.841 110.564L136.331 148.428L157.229 154.163L155.07 147.895L196.815 133.456ZM196.815 133.456C196.351 132.119 195.294 131.088 193.832 130.356C192.373 129.625 190.491 129.181 188.327 129.017C183.997 128.69 178.47 129.484 172.756 131.457C167.043 133.43 162.205 136.222 159.002 139.156M196.815 133.456L159.002 139.156M159.002 139.156C157.401 140.622 156.195 142.136 155.5 143.613M159.002 139.156L155.5 143.613M155.5 143.613C154.803 145.093 154.608 146.557 155.07 147.895L155.5 143.613Z" fill="#E41A3A" stroke="#E41A3A" stroke-width="0.679682"/>
<path d="M167.019 151.663C173.755 147.064 181.598 144.348 189.735 143.797C183.002 148.401 175.158 151.118 167.019 151.663Z" fill="#E41A3A" stroke="#E41A3A" stroke-width="0.679682"/>
<path d="M192.177 94.8152C191.625 96.7052 192.211 98.5526 193.485 98.9343C194.778 99.3019 196.253 98.0586 196.809 96.1326C197.36 94.2426 195.769 91.0546 195.769 91.0546C195.769 91.0546 192.711 92.9028 192.177 94.8152Z" fill="#E41A3A" stroke="#E41A3A" stroke-width="1.35936" stroke-linejoin="round"/>
<path d="M188.364 116.752C189.646 112.28 191.484 112.807 192.767 108.336C194.049 103.864 192.247 103.342 193.53 98.8705" stroke="#E41A3A" stroke-width="1.35936" stroke-linecap="round" stroke-linejoin="round"/>
<path d="M165.869 152.065C174.857 151.692 183.538 148.694 190.839 143.44C181.844 143.774 173.152 146.776 165.869 152.065Z" stroke="#E41A3A" stroke-width="1.35936" stroke-linecap="round" stroke-linejoin="round"/>
<path d="M177.481 145.975C184.795 143.4 199.119 141.191 201.361 147.675C203.063 152.598 195.247 159.758 183.886 163.681C172.525 167.605 161.965 166.812 160.259 161.892C158.032 155.434 170.339 148.489 177.481 145.975Z" fill="#E41A3A" stroke="#E41A3A" stroke-width="1.35936" stroke-linecap="round" stroke-linejoin="round"/>
<path d="M160.264 161.889L155.387 147.787C153.687 142.864 161.502 135.705 172.863 131.781C184.224 127.858 194.784 128.65 196.489 133.57L201.365 147.672" stroke="#E41A3A" stroke-width="1.35936" stroke-linecap="round" stroke-linejoin="round"/>
<defs>
<clipPath id="clip0_936_908">
<rect width="176.901" height="176.901" fill="white" transform="translate(245 194)"/>
</clipPath>
</defs>
</svg>
