<?xml version="1.0" encoding="UTF-8"?>
<svg id="Layer_1" data-name="Layer 1" xmlns="http://www.w3.org/2000/svg" viewBox="0 0 4535.43 2834.65">
  <defs>
    <style>
      .cls-1 {
        fill: none;
      }

      .cls-1, .cls-2, .cls-3 {
        stroke-width: 0px;
      }

      .cls-2 {
        fill: #fff;
      }

      .cls-3 {
        fill: #e21d3c;
      }
    </style>
  </defs>
  <path class="cls-3" d="M2643.74,1693.9c-2.81-2.21-6.26-3.36-10.33-3.36h-33.44v34.05h33.44c3.66,0,6.57-.86,8.73-2.61,2.16-1.76,3.66-4.06,4.51-6.97.85-2.91,1.31-5.92,1.31-9.02,0-5.82-1.41-9.83-4.22-12.09ZM2649.01,1773.63c-1.66-2.21-3.76-3.87-6.42-4.97-2.61-1.05-5.47-1.6-8.57-1.6h-34.05v35.8h33.44c3.66,0,6.88-.75,9.58-2.3,2.71-1.56,4.82-3.81,6.27-6.83,1.45-3.01,2.21-6.67,2.21-10.93,0-3.86-.85-6.92-2.46-9.17ZM2649.01,1773.63c-1.66-2.21-3.76-3.87-6.42-4.97-2.61-1.05-5.47-1.6-8.57-1.6h-34.05v35.8h33.44c3.66,0,6.88-.75,9.58-2.3,2.71-1.56,4.82-3.81,6.27-6.83,1.45-3.01,2.21-6.67,2.21-10.93,0-3.86-.85-6.92-2.46-9.17ZM2643.74,1693.9c-2.81-2.21-6.26-3.36-10.33-3.36h-33.44v34.05h33.44c3.66,0,6.57-.86,8.73-2.61,2.16-1.76,3.66-4.06,4.51-6.97.85-2.91,1.31-5.92,1.31-9.02,0-5.82-1.41-9.83-4.22-12.09ZM2643.74,1693.9c-2.81-2.21-6.26-3.36-10.33-3.36h-33.44v34.05h33.44c3.66,0,6.57-.86,8.73-2.61,2.16-1.76,3.66-4.06,4.51-6.97.85-2.91,1.31-5.92,1.31-9.02,0-5.82-1.41-9.83-4.22-12.09ZM2649.01,1773.63c-1.66-2.21-3.76-3.87-6.42-4.97-2.61-1.05-5.47-1.6-8.57-1.6h-34.05v35.8h33.44c3.66,0,6.88-.75,9.58-2.3,2.71-1.56,4.82-3.81,6.27-6.83,1.45-3.01,2.21-6.67,2.21-10.93,0-3.86-.85-6.92-2.46-9.17ZM2649.01,1773.63c-1.66-2.21-3.76-3.87-6.42-4.97-2.61-1.05-5.47-1.6-8.57-1.6h-34.05v35.8h33.44c3.66,0,6.88-.75,9.58-2.3,2.71-1.56,4.82-3.81,6.27-6.83,1.45-3.01,2.21-6.67,2.21-10.93,0-3.86-.85-6.92-2.46-9.17ZM2643.74,1693.9c-2.81-2.21-6.26-3.36-10.33-3.36h-33.44v34.05h33.44c3.66,0,6.57-.86,8.73-2.61,2.16-1.76,3.66-4.06,4.51-6.97.85-2.91,1.31-5.92,1.31-9.02,0-5.82-1.41-9.83-4.22-12.09ZM2643.74,1693.9c-2.81-2.21-6.26-3.36-10.33-3.36h-33.44v34.05h33.44c3.66,0,6.57-.86,8.73-2.61,2.16-1.76,3.66-4.06,4.51-6.97.85-2.91,1.31-5.92,1.31-9.02,0-5.82-1.41-9.83-4.22-12.09ZM2649.01,1773.63c-1.66-2.21-3.76-3.87-6.42-4.97-2.61-1.05-5.47-1.6-8.57-1.6h-34.05v35.8h33.44c3.66,0,6.88-.75,9.58-2.3,2.71-1.56,4.82-3.81,6.27-6.83,1.45-3.01,2.21-6.67,2.21-10.93,0-3.86-.85-6.92-2.46-9.17ZM2649.01,1773.63c-1.66-2.21-3.76-3.87-6.42-4.97-2.61-1.05-5.47-1.6-8.57-1.6h-34.05v35.8h33.44c3.66,0,6.88-.75,9.58-2.3,2.71-1.56,4.82-3.81,6.27-6.83,1.45-3.01,2.21-6.67,2.21-10.93,0-3.86-.85-6.92-2.46-9.17ZM2643.74,1693.9c-2.81-2.21-6.26-3.36-10.33-3.36h-33.44v34.05h33.44c3.66,0,6.57-.86,8.73-2.61,2.16-1.76,3.66-4.06,4.51-6.97.85-2.91,1.31-5.92,1.31-9.02,0-5.82-1.41-9.83-4.22-12.09ZM2643.74,1693.9c-2.81-2.21-6.26-3.36-10.33-3.36h-33.44v34.05h33.44c3.66,0,6.57-.86,8.73-2.61,2.16-1.76,3.66-4.06,4.51-6.97.85-2.91,1.31-5.92,1.31-9.02,0-5.82-1.41-9.83-4.22-12.09ZM2649.01,1773.63c-1.66-2.21-3.76-3.87-6.42-4.97-2.61-1.05-5.47-1.6-8.57-1.6h-34.05v35.8h33.44c3.66,0,6.88-.75,9.58-2.3,2.71-1.56,4.82-3.81,6.27-6.83,1.45-3.01,2.21-6.67,2.21-10.93,0-3.86-.85-6.92-2.46-9.17ZM2649.01,1773.63c-1.66-2.21-3.76-3.87-6.42-4.97-2.61-1.05-5.47-1.6-8.57-1.6h-34.05v35.8h33.44c3.66,0,6.88-.75,9.58-2.3,2.71-1.56,4.82-3.81,6.27-6.83,1.45-3.01,2.21-6.67,2.21-10.93,0-3.86-.85-6.92-2.46-9.17ZM2642.14,1721.98c2.16-1.76,3.66-4.06,4.51-6.97.85-2.91,1.31-5.92,1.31-9.02,0-5.82-1.41-9.83-4.22-12.09-2.81-2.21-6.26-3.36-10.33-3.36h-33.44v34.05h33.44c3.66,0,6.57-.86,8.73-2.61ZM3294.45,1206.57c-22.28-22.13-46.37-42.4-72.06-60.6h-.01c-92.16-65.28-204.64-103.68-325.92-103.68-101.68,0-197.17,26.99-279.69,74.19-2.67,1.52-5.31,3.07-7.95,4.63-1.32.77-2.63,1.55-3.94,2.36-4.42,2.67-8.81,5.4-13.16,8.2-1.45.93-2.89,1.86-4.33,2.81-1.92,1.26-3.83,2.53-5.73,3.81-2.49,1.68-4.96,3.37-7.43,5.08-2.46,1.71-4.91,3.45-7.34,5.21-.19.12-.39.26-.58.42-1.14.82-2.27,1.64-3.4,2.47-1.23.89-2.46,1.79-3.68,2.72-1.07.8-2.14,1.6-3.21,2.41-.32.23-.63.47-.95.72-.97.74-1.93,1.48-2.9,2.22-1.29.98-2.57,1.98-3.85,2.99-.96.76-1.92,1.52-2.88,2.28-.41.31-.83.64-1.24.99-.98.78-1.95,1.56-2.93,2.35-2.62,2.11-5.21,4.25-7.79,6.43-1.96,1.63-3.9,3.28-5.83,4.96-1.58,1.35-3.14,2.71-4.7,4.1-.72.63-1.43,1.27-2.15,1.91-1.78,1.57-3.54,3.16-5.3,4.78-1.22,1.11-2.44,2.24-3.66,3.38-.13.11-.27.23-.4.37-1.55,1.43-3.09,2.88-4.62,4.34-.05.05-.09.09-.13.13-1.38,1.31-2.75,2.64-4.12,3.97-.48.45-.95.92-1.42,1.39-1.39,1.35-2.77,2.72-4.14,4.09l-.06.06c-1.49,1.49-2.98,2.99-4.45,4.5-1.7,1.73-3.39,3.48-5.07,5.25-1.54,1.61-3.07,3.23-4.58,4.87-1.37,1.46-2.73,2.94-4.07,4.42-1.8,1.96-3.58,3.94-5.34,5.94-1.33,1.49-2.64,2.98-3.94,4.49-1.2,1.37-2.39,2.75-3.56,4.14-.61.71-1.22,1.43-1.82,2.15-1.22,1.44-2.43,2.89-3.63,4.35-1.7,2.06-3.39,4.13-5.06,6.22-.82,1.02-1.64,2.04-2.44,3.07-4.65,5.86-9.17,11.81-13.57,17.86-1.17,1.59-2.31,3.18-3.45,4.78-1.55,2.16-3.07,4.33-4.58,6.52-1.05,1.51-2.09,3.02-3.11,4.54-1.62,2.37-3.21,4.76-4.78,7.17-.93,1.41-1.85,2.83-2.76,4.25-.17.26-.34.51-.5.77-1.13,1.77-2.26,3.54-3.37,5.32-1.25,2.01-2.5,4.02-3.72,6.04-1.17,1.92-2.33,3.85-3.47,5.78-.97,1.63-1.92,3.27-2.87,4.91-.37.63-.73,1.26-1.09,1.89-1.01,1.75-2,3.5-2.99,5.27-.96,1.72-1.92,3.45-2.86,5.19-1.26,2.31-2.51,4.63-3.73,6.96-.95,1.79-1.88,3.58-2.8,5.38-1.92,3.71-3.78,7.45-5.61,11.22-.4.81-.79,1.63-1.18,2.45-.82,1.7-1.63,3.4-2.43,5.12-.83,1.78-1.66,3.56-2.46,5.35-1.15,2.51-2.28,5.03-3.38,7.56-.76,1.74-1.52,3.49-2.26,5.24-1.45,3.39-2.86,6.8-4.23,10.23-.34.83-.67,1.67-1,2.5-.4.99-.79,1.99-1.17,2.98-.53,1.35-1.05,2.7-1.57,4.06-.42,1.1-.84,2.21-1.25,3.33-.41,1.08-.81,2.16-1.2,3.24-.84,2.26-1.66,4.54-2.46,6.83-.49,1.38-.98,2.78-1.45,4.17-.29.84-.58,1.68-.86,2.52-.63,1.86-1.25,3.73-1.86,5.6-1.49,4.56-2.93,9.16-4.3,13.77-.22.72-.43,1.44-.64,2.16-.29.98-.58,1.97-.86,2.96-.54,1.87-1.07,3.74-1.58,5.62-.32,1.14-.64,2.28-.94,3.43-.3,1.1-.6,2.21-.89,3.32l-.69,2.67c-.93,3.57-1.81,7.15-2.66,10.75-.23.95-.45,1.9-.67,2.85-.26,1.13-.52,2.27-.78,3.41-.34,1.5-.67,3-.99,4.5-.34,1.54-.66,3.08-.98,4.63-.23,1.09-.45,2.17-.66,3.26-.1.45-.19.91-.28,1.37-.12.6-.24,1.2-.35,1.81-.38,1.89-.74,3.78-1.08,5.68-.19.97-.36,1.93-.53,2.9-.69,3.81-1.33,7.64-1.94,11.48-.13.83-.26,1.66-.38,2.48-.25,1.62-.49,3.24-.73,4.86-.18,1.24-.35,2.47-.52,3.71-.22,1.58-.43,3.17-.63,4.75-.26,1.97-.5,3.95-.74,5.94-.12,1.06-.25,2.13-.36,3.19-.2,1.73-.39,3.46-.56,5.2-.15,1.39-.28,2.78-.42,4.17-.03.37-.07.74-.1,1.12-.12,1.29-.24,2.58-.35,3.88-.15,1.75-.3,3.5-.43,5.26-.09,1.15-.18,2.3-.26,3.45-.01.2-.03.4-.04.59-.08,1.15-.16,2.31-.23,3.46,0,.09,0,.18-.02.28-.06.96-.12,1.92-.17,2.88-.04.55-.07,1.11-.1,1.67-.05.83-.09,1.67-.13,2.51-.17,3.2-.3,6.4-.41,9.62-.05,1.57-.1,3.13-.14,4.7-.03,1.26-.06,2.52-.09,3.79-.07,3.63-.1,7.28-.1,10.93,0,2.02.01,4.04.04,6.06,0,.41,0,.82.01,1.23.02,1.91.05,3.83.1,5.74,0,.14,0,.27,0,.41.03,1.59.08,3.17.13,4.75,0,.09,0,.18.01.27.03,1.1.07,2.19.12,3.28-.01.02-.01.05,0,.08.05,1.53.12,3.06.19,4.58.11,2.42.24,4.84.38,7.25.11,1.89.23,3.78.37,5.67,0,.17.02.35.03.52.13,1.82.26,3.64.41,5.46.04.57.09,1.14.14,1.71.13,1.6.27,3.19.41,4.79.07.78.15,1.57.22,2.35.14,1.47.29,2.94.44,4.4.27,2.63.56,5.27.87,7.89.22,1.82.44,3.64.67,5.45,0,.02.01.05.01.07.49,3.85,1.02,7.68,1.59,11.5.12.83.25,1.67.38,2.5.05.34.1.68.16,1.02.19,1.25.38,2.49.58,3.73.05.32.11.64.16.96.26,1.6.53,3.19.8,4.78.43,2.46.87,4.91,1.33,7.36.39,2.11.79,4.21,1.21,6.3.01.07.02.14.04.21.4,2.03.81,4.05,1.24,6.07.41,1.96.84,3.93,1.27,5.89.05.25.11.49.16.73.43,1.93.87,3.85,1.32,5.77.01.05.02.1.04.15.47,2.05.96,4.09,1.47,6.13.41,1.7.84,3.39,1.28,5.08.07.32.16.64.24.95.12.47.24.94.36,1.4.42,1.63.86,3.26,1.3,4.88.55,2.05,1.11,4.09,1.69,6.12.51,1.82,1.03,3.63,1.56,5.44.23.77.46,1.55.69,2.31.41,1.39.83,2.78,1.26,4.16.64,2.1,1.29,4.19,1.96,6.27.48,1.51.97,3.01,1.46,4.51.44,1.33.87,2.65,1.32,3.96.47,1.41.95,2.82,1.44,4.23.61,1.75,1.22,3.49,1.84,5.22.54,1.52,1.09,3.04,1.65,4.55.04.12.08.23.13.34.28.8.58,1.59.88,2.38.55,1.52,1.12,3.03,1.7,4.53.73,1.89,1.46,3.78,2.2,5.66.03.06.05.12.08.19.77,1.95,1.55,3.89,2.34,5.82.75,1.85,1.51,3.68,2.28,5.51.42.99.84,1.98,1.27,2.97.55,1.31,1.12,2.62,1.69,3.92.42.96.84,1.92,1.27,2.88.4.92.81,1.84,1.23,2.75.52,1.18,1.06,2.36,1.61,3.54.36.81.73,1.61,1.11,2.41.55,1.2,1.11,2.4,1.68,3.59.31.69.64,1.38.97,2.06.56,1.17,1.12,2.34,1.69,3.5.51,1.07,1.03,2.13,1.56,3.19.4.82.8,1.63,1.21,2.44.61,1.23,1.23,2.45,1.86,3.67,4.7,9.27,9.66,18.39,14.87,27.35.74,1.27,1.48,2.54,2.24,3.81.23.42.48.83.74,1.25.87,1.48,1.76,2.96,2.66,4.43.33.57.68,1.13,1.03,1.69.69,1.14,1.39,2.28,2.1,3.41.56.92,1.13,1.84,1.72,2.75.57.93,1.16,1.86,1.76,2.78.62.99,1.26,1.98,1.9,2.96.4.64.81,1.27,1.23,1.9.79,1.23,1.6,2.45,2.41,3.66.33.51.66,1.01,1,1.51.9,1.36,1.81,2.71,2.74,4.06,2.26,3.34,4.56,6.65,6.9,9.93,1.26,1.78,2.54,3.55,3.82,5.31.05.07.1.14.16.21,1.33,1.83,2.68,3.65,4.04,5.47,1.63,2.18,3.28,4.35,4.96,6.51,1.03,1.35,2.07,2.7,3.13,4.04.2.26.41.52.62.78,1.02,1.3,2.05,2.6,3.09,3.89.53.67,1.07,1.34,1.62,2.01.87,1.08,1.75,2.16,2.64,3.24.43.52.86,1.04,1.29,1.56.87,1.06,1.75,2.11,2.63,3.15.75.9,1.5,1.79,2.26,2.68.42.49.84.98,1.27,1.47.85,1.02,1.73,2.03,2.6,3.03,1.27,1.46,2.55,2.92,3.84,4.37.03.04.07.08.11.12.92,1.04,1.85,2.09,2.8,3.12.98,1.11,1.98,2.21,2.99,3.3,1.1,1.21,2.2,2.41,3.32,3.6,1.89,2.03,3.8,4.05,5.73,6.06,1.17,1.23,2.35,2.45,3.54,3.66.12.13.24.25.37.38,1.36,1.4,2.73,2.78,4.11,4.16.4.41.8.81,1.22,1.22,1.14,1.14,2.28,2.27,3.43,3.38.42.43.84.84,1.27,1.24,1.1,1.08,2.2,2.15,3.31,3.2.58.57,1.17,1.13,1.75,1.67,1.26,1.21,2.53,2.4,3.81,3.59.11.1.22.21.34.31,1.29,1.21,2.59,2.41,3.9,3.6.53.49,1.07.98,1.61,1.47,1.47,1.33,2.94,2.65,4.43,3.97,1.42,1.26,2.85,2.52,4.29,3.77,5.21,4.53,10.51,8.97,15.89,13.32.9.73,1.8,1.45,2.71,2.17.7.56,1.39,1.11,2.09,1.66,1.01.81,2.02,1.6,3.04,2.39.83.65,1.67,1.3,2.51,1.94.72.56,1.44,1.11,2.16,1.65.84.66,1.69,1.3,2.54,1.93,1.02.78,2.05,1.55,3.08,2.31.77.58,1.55,1.15,2.33,1.72.87.65,1.74,1.28,2.61,1.91,1.13.82,2.26,1.64,3.4,2.44.56.42,1.12.81,1.68,1.2,1.43,1.03,2.87,2.04,4.32,3.04.29.21.58.41.86.61,1.48,1.02,2.95,2.03,4.44,3.04,4.47,3.04,8.99,6.02,13.55,8.92,1.44.93,2.89,1.84,4.34,2.75.47.3.94.59,1.41.88,1.27.79,2.55,1.58,3.83,2.36.85.52,1.7,1.04,2.55,1.55,1.19.72,2.39,1.44,3.59,2.14.42.26.84.51,1.26.74,1.33.8,2.67,1.58,4.01,2.35.88.51,1.76,1.02,2.64,1.52.9.52,1.8,1.03,2.7,1.53,1.01.58,2.03,1.15,3.05,1.71.92.52,1.85,1.04,2.79,1.54.87.49,1.73.96,2.6,1.42,1.33.73,2.67,1.45,4.01,2.15,9.03,4.81,18.2,9.37,27.5,13.68,1.29.61,2.59,1.2,3.89,1.79.71.33,1.42.65,2.12.96,1.3.59,2.6,1.17,3.91,1.74.97.43,1.94.85,2.91,1.27.91.4,1.82.79,2.73,1.17,1.47.64,2.94,1.26,4.41,1.87.14.06.28.12.41.17,1.76.74,3.52,1.46,5.29,2.17.36.15.73.3,1.09.44,1.67.67,3.34,1.34,5.01,1.99,1.78.7,3.55,1.38,5.34,2.06,1.91.72,3.83,1.44,5.76,2.14.65.25,1.31.48,1.97.72,1.11.41,2.22.81,3.33,1.2l2.64.93c1.2.42,2.4.84,3.61,1.25,1.59.55,3.19,1.09,4.79,1.61.96.32,1.93.64,2.9.96,3.52,1.15,7.06,2.27,10.62,3.35.83.25,1.66.5,2.5.75,1.43.43,2.86.85,4.29,1.27,1.97.57,3.95,1.13,5.93,1.68.12.04.24.07.35.1,1.76.49,3.54.98,5.31,1.45,2.33.62,4.66,1.23,7,1.82,1.98.51,3.97,1,5.97,1.48,1.81.44,3.62.87,5.44,1.29h.02c.66.16,1.32.31,1.99.46,1.61.37,3.21.72,4.83,1.08.06.01.11.02.16.03,1.71.38,3.44.74,5.16,1.1.52.11,1.04.22,1.56.32.27.06.55.12.82.17,1.66.34,3.33.67,5,.99,1.99.39,3.99.77,5.99,1.13.26.06.52.1.77.14,1.96.36,3.91.7,5.88,1.04,4.23.72,8.47,1.4,12.73,2.02,26.96,3.97,54.54,6.02,82.58,6.02,311.65,0,565.2-253.55,565.2-565.22,0-156.57-64-298.49-167.21-400.93ZM2874.63,1494.8c0-13.19,2.41-25.13,7.28-35.8,4.86-10.69,11.53-19.86,20.05-27.48,8.53-7.68,18.31-13.59,29.24-17.76,10.93-4.16,22.46-6.26,34.49-6.26h8.18c11.83,0,22.86,1.75,33.04,5.21,10.18,3.51,19.06,8.78,26.63,15.85,7.57,7.06,13.44,15.89,17.59,26.47,4.17,10.58,6.27,22.97,6.27,37.11h-57.3c0-9.88-1.06-17.7-3.22-23.42-2.15-5.72-5.47-9.77-10.03-12.23-4.56-2.41-10.42-3.66-17.6-3.66-4.46,0-8.47.75-12.08,2.2-3.61,1.46-6.67,3.46-9.18,5.97-2.51,2.51-4.46,5.56-5.81,9.18-1.36,3.61-2.06,7.52-2.06,11.78v56.46c0,5.61,1.11,10.68,3.36,15.15,2.21,4.46,5.52,7.91,9.88,10.32,4.36,2.41,9.62,3.66,15.84,3.66,8.33,0,14.94-1.15,19.81-3.51,4.87-2.3,8.33-6.32,10.48-11.93,2.15-5.62,3.21-13.39,3.21-23.27l54.7-.3c0,12.99-2.1,24.72-6.27,35.2-4.15,10.48-10.02,19.36-17.59,26.63-7.57,7.27-16.4,12.84-26.48,16.74-10.08,3.86-21.06,5.82-32.89,5.82h-8.17c-12.79,0-24.72-1.96-35.8-5.82-11.09-3.85-20.77-9.57-29.09-17.05-8.32-7.47-14.84-16.64-19.5-27.47-4.66-10.88-6.98-23.17-6.98-36.96v-30.83ZM2543.81,1566.94h23.87v-113.47h-23.87v-43.07h85.45l-.21,156.54h23.57v43.07h-108.81v-43.07ZM2701.86,1820.41c-5.62,8.63-12.89,15.34-21.81,20.06-8.93,4.76-18.5,7.12-28.84,7.12h-107.35l-.05.05v-199.62h107.1c9.88,0,19.01,1.76,27.33,5.22,8.33,3.5,14.99,8.67,19.96,15.54,4.96,6.87,7.42,15.49,7.42,25.77,0,9.33-1.55,17.2-4.66,23.72-3.11,6.52-7.17,11.78-12.24,15.85-5.06,4.06-10.58,7.16-16.6,9.33v1.15c4.66,1.15,9.28,2.9,13.84,5.21,4.56,2.31,8.68,5.36,12.39,9.18,3.66,3.76,6.57,8.22,8.72,13.38,2.16,5.17,3.22,11.08,3.22,17.91,0,11.43-2.81,21.51-8.43,30.13ZM2679.69,1610.01v-199.61h51.19l2.6,3.75,48.9,70.46,9.02,17.15,1.46-.85v-90.51h56.16v199.61h-52.4l-28.48-41.07-24.78-35.74-6.11-12.24-1.45.6v88.45h-56.11ZM2715.49,1648.02h68.7l29.98,65.49h1.46l30.53-65.49h62.58l-65.74,123.1v76.52h-61.47v-76.52l-4.81-8.96-61.23-114.14ZM3072.21,1696.06h-50.34v151.58h-61.37v-151.58h-50.05v-48.04h161.76v48.04ZM3237.22,1847.64h-144.06v-199.62h144.01v46.58h-84.04v29.08h75.77v44.53h-75.77v32.89h84.09v46.54ZM3249.1,1545.43c0,13.39-3.5,25.17-10.47,35.35-6.97,10.18-16.6,18.1-28.83,23.72-12.24,5.61-26.28,8.42-42.17,8.42h-12.54c-15.68-.01-29.2-2.82-40.57-8.42-11.33-5.62-20.01-13.54-26.02-23.72-6.02-10.18-9.02-21.96-9.02-35.35v-135.03h61.37v135.28c0,6.42,2.25,11.64,6.82,15.69,4.56,4.07,10.13,6.12,16.74,6.12s12.14-2.05,16.6-6.12c4.46-4.05,6.72-9.32,6.72-15.69v-135.28h61.37v135.03ZM2642.59,1768.66c-2.61-1.05-5.47-1.6-8.57-1.6h-34.05v35.8h33.44c3.66,0,6.88-.75,9.58-2.3,2.71-1.56,4.82-3.81,6.27-6.83,1.45-3.01,2.21-6.67,2.21-10.93,0-3.86-.85-6.92-2.46-9.17-1.66-2.21-3.76-3.87-6.42-4.97ZM2642.14,1721.98c2.16-1.76,3.66-4.06,4.51-6.97.85-2.91,1.31-5.92,1.31-9.02,0-5.82-1.41-9.83-4.22-12.09-2.81-2.21-6.26-3.36-10.33-3.36h-33.44v34.05h33.44c3.66,0,6.57-.86,8.73-2.61ZM2643.74,1693.9c-2.81-2.21-6.26-3.36-10.33-3.36h-33.44v34.05h33.44c3.66,0,6.57-.86,8.73-2.61,2.16-1.76,3.66-4.06,4.51-6.97.85-2.91,1.31-5.92,1.31-9.02,0-5.82-1.41-9.83-4.22-12.09ZM2649.01,1773.63c-1.66-2.21-3.76-3.87-6.42-4.97-2.61-1.05-5.47-1.6-8.57-1.6h-34.05v35.8h33.44c3.66,0,6.88-.75,9.58-2.3,2.71-1.56,4.82-3.81,6.27-6.83,1.45-3.01,2.21-6.67,2.21-10.93,0-3.86-.85-6.92-2.46-9.17ZM2649.01,1773.63c-1.66-2.21-3.76-3.87-6.42-4.97-2.61-1.05-5.47-1.6-8.57-1.6h-34.05v35.8h33.44c3.66,0,6.88-.75,9.58-2.3,2.71-1.56,4.82-3.81,6.27-6.83,1.45-3.01,2.21-6.67,2.21-10.93,0-3.86-.85-6.92-2.46-9.17ZM2643.74,1693.9c-2.81-2.21-6.26-3.36-10.33-3.36h-33.44v34.05h33.44c3.66,0,6.57-.86,8.73-2.61,2.16-1.76,3.66-4.06,4.51-6.97.85-2.91,1.31-5.92,1.31-9.02,0-5.82-1.41-9.83-4.22-12.09ZM2643.74,1693.9c-2.81-2.21-6.26-3.36-10.33-3.36h-33.44v34.05h33.44c3.66,0,6.57-.86,8.73-2.61,2.16-1.76,3.66-4.06,4.51-6.97.85-2.91,1.31-5.92,1.31-9.02,0-5.82-1.41-9.83-4.22-12.09ZM2649.01,1773.63c-1.66-2.21-3.76-3.87-6.42-4.97-2.61-1.05-5.47-1.6-8.57-1.6h-34.05v35.8h33.44c3.66,0,6.88-.75,9.58-2.3,2.71-1.56,4.82-3.81,6.27-6.83,1.45-3.01,2.21-6.67,2.21-10.93,0-3.86-.85-6.92-2.46-9.17ZM2649.01,1773.63c-1.66-2.21-3.76-3.87-6.42-4.97-2.61-1.05-5.47-1.6-8.57-1.6h-34.05v35.8h33.44c3.66,0,6.88-.75,9.58-2.3,2.71-1.56,4.82-3.81,6.27-6.83,1.45-3.01,2.21-6.67,2.21-10.93,0-3.86-.85-6.92-2.46-9.17ZM2643.74,1693.9c-2.81-2.21-6.26-3.36-10.33-3.36h-33.44v34.05h33.44c3.66,0,6.57-.86,8.73-2.61,2.16-1.76,3.66-4.06,4.51-6.97.85-2.91,1.31-5.92,1.31-9.02,0-5.82-1.41-9.83-4.22-12.09ZM2643.74,1693.9c-2.81-2.21-6.26-3.36-10.33-3.36h-33.44v34.05h33.44c3.66,0,6.57-.86,8.73-2.61,2.16-1.76,3.66-4.06,4.51-6.97.85-2.91,1.31-5.92,1.31-9.02,0-5.82-1.41-9.83-4.22-12.09ZM2649.01,1773.63c-1.66-2.21-3.76-3.87-6.42-4.97-2.61-1.05-5.47-1.6-8.57-1.6h-34.05v35.8h33.44c3.66,0,6.88-.75,9.58-2.3,2.71-1.56,4.82-3.81,6.27-6.83,1.45-3.01,2.21-6.67,2.21-10.93,0-3.86-.85-6.92-2.46-9.17ZM2649.01,1773.63c-1.66-2.21-3.76-3.87-6.42-4.97-2.61-1.05-5.47-1.6-8.57-1.6h-34.05v35.8h33.44c3.66,0,6.88-.75,9.58-2.3,2.71-1.56,4.82-3.81,6.27-6.83,1.45-3.01,2.21-6.67,2.21-10.93,0-3.86-.85-6.92-2.46-9.17ZM2643.74,1693.9c-2.81-2.21-6.26-3.36-10.33-3.36h-33.44v34.05h33.44c3.66,0,6.57-.86,8.73-2.61,2.16-1.76,3.66-4.06,4.51-6.97.85-2.91,1.31-5.92,1.31-9.02,0-5.82-1.41-9.83-4.22-12.09ZM2643.74,1693.9c-2.81-2.21-6.26-3.36-10.33-3.36h-33.44v34.05h33.44c3.66,0,6.57-.86,8.73-2.61,2.16-1.76,3.66-4.06,4.51-6.97.85-2.91,1.31-5.92,1.31-9.02,0-5.82-1.41-9.83-4.22-12.09ZM2649.01,1773.63c-1.66-2.21-3.76-3.87-6.42-4.97-2.61-1.05-5.47-1.6-8.57-1.6h-34.05v35.8h33.44c3.66,0,6.88-.75,9.58-2.3,2.71-1.56,4.82-3.81,6.27-6.83,1.45-3.01,2.21-6.67,2.21-10.93,0-3.86-.85-6.92-2.46-9.17ZM2649.01,1773.63c-1.66-2.21-3.76-3.87-6.42-4.97-2.61-1.05-5.47-1.6-8.57-1.6h-34.05v35.8h33.44c3.66,0,6.88-.75,9.58-2.3,2.71-1.56,4.82-3.81,6.27-6.83,1.45-3.01,2.21-6.67,2.21-10.93,0-3.86-.85-6.92-2.46-9.17ZM2643.74,1693.9c-2.81-2.21-6.26-3.36-10.33-3.36h-33.44v34.05h33.44c3.66,0,6.57-.86,8.73-2.61,2.16-1.76,3.66-4.06,4.51-6.97.85-2.91,1.31-5.92,1.31-9.02,0-5.82-1.41-9.83-4.22-12.09Z"/>
  <path class="cls-3" d="M2725.9,2221.68l-154.86,96.78-167.41,135.81s-109.51,39.09-141.62,45.44c-32.12,6.35-90.03,19.54-90.03,19.54,0,0,0-71.33-45.26-97.22-45.26-25.89-103.17-32.24-103.17-32.24,0,0-32.12-58.15-57.92-84.04-25.79-25.89-843.89-569.15-889.15-595.05-9.74-5.86-15.09-11.23-18.01-16.61-.31-12.45-.62-24.84-.93-36.73-1.19-45.91-2.18-84.16-1.02-88.83,2.91-12.22,125.56-84.03,146.49-96.24,8.8-5.14,20.78-4.91,31.71-4.72,15.07.28,28.16.52,28.16-13.36,0-16.03,22.92-16.07,46.98-16.1,11.87-.02,24-.03,33.81-1.97,29.68-6.35,47.7-27.36,47.7-54.24,0-21.11,25.84-22.01,49.9-22.85,6.56-.23,12.98-.46,18.71-1.08,14.41-1.59,20.22-9.26,25.33-16,4.37-5.78,8.21-10.87,16.52-10.87,12.42,0,12.11-13.02,11.68-30.87-.19-8.03-.41-17.05.49-26.29q2.45-24.9,18.36-24.22c3.12.14,6.85.29,11.33.29,27.26,0,54.01-15.14,54.01-33.21,0-14.4,73.83-9.59,112.96-7.03,9.98.66,17.71,1.16,21.36,1.16,18.01,0,23.85-21,20.93-36.15-3.4-15.14-18.01-60.09-36.01-63.02-12.57-2.05-10.44-24.57-8-50.26,1.05-11.13,2.16-22.85,2.16-33.76l.49,2.44c0-36.15-5.84-69.37-26.77-96.24-4.38-5.86-9.74-16.12-15.09-28.34,12.65-.49,24.82-4.4,34.56-15.63,35.03-39.57,101.71-74.74,143.56-74.74,18.46,0,34.55-14.25,52.82-30.44,23.18-20.52,49.85-44.15,89.29-45.78,21.96-.91,61.18-5.47,105.55-10.61,98.28-11.4,221.77-25.73,238.53-9.91,15.58,14.7,51.31.56,82.8-11.9,17.69-7,34.03-13.47,44.7-14,12.27-.4,27.62-2.98,42.53-5.48,21.18-3.55,41.5-6.95,50.92-3.8.46.15.96.31,1.52.49,12.54,4.04,50.15,16.13,84.62,16.13-8.27,54.23-15.57,121.65-.96,143.62,21.41,32.25-5.84,86.96-27.26,97.72-9.87,4.83-18.65,17.41-27.28,29.78-10.52,15.07-20.81,29.82-32.59,29.82-14.32,0-9.48,36.52,6.67,65.52-180.44,112.53-300.51,312.8-300.51,541.12,0,292.88,197.58,539.6,466.71,614.18h0Z"/>
  <rect class="cls-3" x="2940.04" y="682.06" width="21.61" height="158.5"/>
  <rect class="cls-3" x="2871.59" y="750.5" width="158.5" height="21.61"/>
  <path class="cls-3" d="M1277.44,1252.34s-.01-.06-.02-.09c-4.62-19.58-16.54-36.26-33.56-46.96-17.02-10.72-37.21-14.24-56.84-9.93-.05.01-.09.02-.14.03-14.63,3.36-27.8,10.89-38.1,21.79-10.31,10.9-17.1,24.48-19.64,39.27-2.54,14.81-.64,29.89,5.49,43.62,6.12,13.72,16.09,25.19,28.79,33.16,12.12,7.65,26.02,11.66,40.33,11.66.68,0,1.37-.01,2.05-.03,15.01-.41,29.42-5.22,41.68-13.91,12.25-8.69,21.56-20.71,26.91-34.76,5.35-14.04,6.41-29.2,3.05-43.85ZM1247.46,1285.93c-3.31,8.7-9.07,16.14-16.65,21.51-7.59,5.38-16.51,8.36-25.79,8.61-9.3.25-18.37-2.24-26.25-7.21-7.87-4.94-14.04-12.04-17.83-20.53-3.79-8.49-4.97-17.82-3.39-26.98,1.57-9.17,5.78-17.59,12.17-24.35,6.37-6.74,14.51-11.4,23.54-13.49,12.18-2.65,24.7-.46,35.25,6.19,10.57,6.64,17.97,16.99,20.85,29.14,2.07,9.06,1.41,18.43-1.9,27.11Z"/>
  <path class="cls-1" d="M1614.37,607.22l25.23-32.11c-11.54,10.56-20.22,21.47-25.23,32.11ZM1854.94,416.78l-8.64-2.38-164.63-45.29-205.41,272.8,147.73,40.54,2.84.78-15.55-45.16,2.27-.79,4.63-1.6c-.26-.77-.49-1.55-.67-2.35-3.46-14.7,6.25-33.75,27.02-52.78,23.28-21.33,57.57-40.49,96.53-53.94,38.99-13.47,77.78-19.57,109.24-17.2,28.08,2.12,47.48,11.1,53.83,24.77.35.74.66,1.5.93,2.27l4.63-1.6,2.34-.81h0s12.14,35.44,12.14,35.44l1.83-2.42,81.54-108.3-152.6-41.98ZM1925.03,564.27l-6.42-18.56-4.13-12.07v-3.04l-1.01.36c-3.78-8.87-11.11-16.07-21.83-21.44-2.44-1.22-5.04-2.34-7.8-3.35-.4-.15-.8-.29-1.21-.43-.47-.17-.93-.33-1.41-.48-1.4-.46-2.84-.9-4.32-1.31-.45-.14-.9-.26-1.37-.37-1.38-.37-2.79-.71-4.24-1.03-.17-.04-.33-.07-.49-.11-.4-.09-.81-.18-1.22-.26-.18-.04-.36-.08-.54-.11-.34-.07-.69-.14-1.04-.21-.41-.08-.82-.16-1.24-.24-1.7-.31-3.44-.6-5.21-.86-.61-.09-1.22-.17-1.84-.26-.88-.12-1.77-.22-2.67-.32-.97-.11-1.96-.21-2.95-.31-.5-.05-1-.09-1.5-.13-.51-.04-1.01-.08-1.52-.12-.15-.01-.31-.02-.46-.03-1.67-.12-3.35-.23-5.07-.31-1.71-.07-3.45-.13-5.21-.16-1.18-.02-2.37-.03-3.57-.03-.14,0-.29,0-.44-.01-.42,0-.84,0-1.26.01-.28,0-.56,0-.84.01h-.3s-.02-.01-.02,0t-.01-.01h-.04s0,0-.03.01h-.11c-.45,0-.9.01-1.35.02-.79.01-1.57.03-2.36.05-1.86.06-3.75.14-5.66.24-1.07.06-2.14.13-3.22.2-.86.06-1.71.12-2.58.19-.13.01-.26.02-.39.03h-.07c-.22.02-.45.04-.68.06-.79.06-1.59.13-2.39.21-.39.03-.78.07-1.17.11-.67.06-1.34.13-2.01.2l-.78.09c-.9.1-1.8.2-2.7.31-1.78.21-3.57.44-5.37.68-.33.04-.65.08-.98.13-.31.04-.63.09-.95.13l-.18.03h-.02s-.03,0-.05.01h-.04s-.04,0-.06,0h-.01s-.01,0-.01,0h-.01c-.61.09-1.23.19-1.84.28-.61.09-1.23.19-1.85.29l-1,.16c-.21.03-.43.07-.64.1-.34.06-.69.11-1.04.18-1,.17-2,.34-3,.52-1.12.19-2.24.4-3.36.6-1.16.22-2.31.45-3.47.68-2.66.53-5.33,1.1-8.02,1.71-2.11.48-4.23.98-6.36,1.5-1.13.27-2.27.56-3.42.86-.99.25-1.98.51-2.97.78-.89.23-1.79.47-2.68.72-1.09.3-2.18.6-3.28.91-3.36.96-6.74,1.97-10.14,3.04-2.12.67-4.26,1.37-6.39,2.08-1.1.36-2.21.74-3.31,1.12-1.26.43-2.51.87-3.75,1.32-.01.01-.02.01-.04.02-1.87.66-3.72,1.34-5.56,2.03-1.84.69-3.67,1.39-5.49,2.11-.01.01-.02.01-.04.02-2.74,1.07-5.45,2.17-8.12,3.31-.9.38-1.78.76-2.67,1.14-11.83,5.1-23.05,10.72-33.47,16.72-1.04.6-2.08,1.2-3.1,1.81-14.37,8.52-27.14,17.79-37.74,27.51-.43.39-.85.78-1.27,1.18-.67.63-1.34,1.26-1.99,1.9-.71.68-1.41,1.37-2.1,2.07-.34.34-.68.69-1.02,1.03-.34.35-.67.69-1,1.03-.34.35-.67.69-.98,1.04-.32.34-.64.69-.96,1.03-.96,1.04-1.88,2.07-2.76,3.1-1.2,1.38-2.33,2.75-3.39,4.12-.56.69-1.08,1.38-1.58,2.06-.78,1.03-1.52,2.06-2.21,3.08-.49.68-.94,1.37-1.37,2.05-.5.77-.99,1.55-1.45,2.32-.43.7-.83,1.4-1.23,2.11-.04.06-.08.13-.12.2-.41.74-.8,1.47-1.18,2.2l-.03.06s-.02.01-.02.02c-.14.27-.28.55-.41.82-.28.54-.54,1.09-.79,1.63-.18.39-.36.78-.53,1.17-.61,1.36-1.15,2.7-1.64,4.05-.25.71-.49,1.41-.7,2.11-.1.3-.2.6-.28.9-.15.5-.29,1-.42,1.5l-.03.12c-.08.31-.16.62-.23.93-.23.93-.42,1.86-.58,2.77-.06.31-.11.63-.15.94-.05.3-.09.6-.13.89,0,.03,0,.05-.01.08-.07.58-.14,1.16-.19,1.73-.02.15-.03.31-.04.46-.02.27-.04.53-.06.79-.01.26-.03.52-.04.79,0,.11,0,.23-.01.34-.04,1.6,0,3.18.15,4.74.09.99.23,1.97.41,2.95h0c.17.98.38,1.95.64,2.91l-.05.02.24.69c.16.55.33,1.1.52,1.65l9.75,28.19,4.32,12.55-142.61-39.13,202.24-268.6,165.29,45.47c.53.46,1.16.82,1.88,1.02.45.13.9.19,1.35.19.3,0,.59-.03.88-.08l151.39,41.65-78.39,104.11ZM1639.6,575.11c23.08-21.14,57.93-41.25,99.1-55.47,41.16-14.22,80.98-19.93,112.18-17.58,15.59,1.18,29.15,4.38,39.66,9.65,10.54,5.27,18.15,12.7,21.49,22.33M1614.37,607.22c5.01-10.64,13.69-21.55,25.23-32.11M1639.6,575.11l-25.23,32.11M1611.28,638.07l.77-7.71,1.38-13.77.94-9.37c-5.02,10.66-6.42,21.21-3.09,30.85Z"/>
  <path class="cls-3" d="M1856,414.53l-9.44-2.6-165.84-45.62-208.58,277.01,152.82,41.94,5.7,1.56-6.3-18.3-9.97-28.93,4.6-1.59-.8-2.3s0-.01-.01-.02c-.26-.77-.49-1.55-.67-2.35l-3.42,1.18,2.64-26.34,24.66-31.37c2.04-1.88,4.18-3.74,6.42-5.59.49-.42.99-.83,1.49-1.22.97-.8,1.96-1.59,2.96-2.37.71-.56,1.42-1.12,2.15-1.66.76-.59,1.52-1.17,2.3-1.73,1.71-1.27,3.47-2.53,5.26-3.79,1.13-.79,2.28-1.58,3.44-2.35.6-.4,1.21-.81,1.82-1.21.61-.4,1.22-.8,1.84-1.2.74-.48,1.49-.96,2.25-1.44,1.09-.69,2.19-1.38,3.31-2.07,6.68-4.12,13.74-8.05,21.13-11.77,1.25-.63,2.5-1.25,3.76-1.87.73-.36,1.46-.72,2.2-1.07.74-.36,1.48-.72,2.23-1.06.74-.35,1.49-.7,2.24-1.05,1.51-.71,3.02-1.4,4.55-2.06,3.83-1.71,7.73-3.36,11.71-4.96,2.22-.9,4.46-1.77,6.71-2.62,1.24-.47,2.5-.93,3.75-1.39,1.09-.4,2.18-.8,3.28-1.2,1.1-.39,2.21-.78,3.31-1.16,39.6-13.68,79.09-19.88,111.2-17.46,15.62,1.18,28.66,4.34,38.75,9.4,9.51,4.76,16.02,11.03,19.37,18.66h-.04s-4.65,1.62-4.65,1.62c.35.74.66,1.5.93,2.27h0s.8,2.32.8,2.32l4.63-1.6h.02s2.66,7.76,2.66,7.76l10.18,29.71.06-.09,3.55-4.7,84.7-112.5-155.66-42.82ZM1924.99,564.32l-6.38-18.61-4.13-12.07v-3.04l-1.01.36c-3.78-8.87-11.11-16.07-21.83-21.44-2.44-1.22-5.04-2.34-7.8-3.35-.4-.15-.8-.29-1.21-.43-.47-.17-.93-.33-1.41-.48-1.4-.46-2.84-.9-4.32-1.31-.45-.14-.9-.26-1.37-.37-1.38-.37-2.79-.71-4.24-1.03-.17-.04-.33-.07-.49-.11-.4-.09-.81-.18-1.22-.26-.18-.04-.36-.08-.54-.11-.34-.07-.69-.14-1.04-.21-.41-.08-.82-.16-1.24-.24-1.7-.31-3.44-.6-5.21-.86-.61-.09-1.22-.17-1.84-.26-.88-.12-1.77-.22-2.67-.32-.97-.11-1.96-.21-2.95-.31-.5-.05-1-.09-1.5-.13-.51-.04-1.01-.08-1.52-.12-.15-.01-.31-.02-.46-.03-1.67-.12-3.35-.23-5.07-.31-1.71-.07-3.45-.13-5.21-.16-1.18-.02-2.37-.03-3.57-.03-.84,0-1.69,0-2.54.01h-.3s-.02-.01-.02,0t-.01-.01h-.04s0,0-.03.01h-.11c-8.16.12-16.63.7-25.36,1.71-1.78.21-3.57.44-5.37.68-.33.04-.65.08-.98.13-.31.04-.63.09-.95.13l-.18.03h-.02s-.03,0-.05.01h-.04s-.04,0-.06,0h-.01s-.01,0-.01,0h-.01c-.61.09-1.23.19-1.84.28-.61.09-1.23.19-1.85.29l-1,.16c-.21.03-.43.07-.64.1-.34.06-.69.11-1.04.18-1,.17-2,.34-3,.52-1.12.19-2.24.4-3.36.6-1.16.22-2.31.45-3.47.68-2.66.53-5.33,1.1-8.02,1.71-2.11.48-4.23.98-6.36,1.5-1.13.27-2.27.56-3.42.86-.99.25-1.98.51-2.97.78-.89.23-1.79.47-2.68.72-1.09.3-2.18.6-3.28.91-3.36.96-6.74,1.97-10.14,3.04-2.12.67-4.26,1.37-6.39,2.08-1.1.36-2.21.74-3.31,1.12-1.26.43-2.51.87-3.75,1.32-.01.01-.02.01-.04.02-1.87.66-3.72,1.34-5.56,2.03-1.84.69-3.67,1.39-5.49,2.11-.01.01-.02.01-.04.02-2.74,1.07-5.45,2.17-8.12,3.31-.9.38-1.78.76-2.67,1.14-11.83,5.1-23.05,10.72-33.47,16.72-1.04.6-2.08,1.2-3.1,1.81-14.37,8.52-27.14,17.79-37.74,27.51-.43.39-.85.78-1.27,1.18-.67.63-1.34,1.26-1.99,1.9-.71.68-1.41,1.37-2.1,2.07-.34.34-.68.69-1.02,1.03-.34.35-.67.69-1,1.03-.34.35-.67.69-.98,1.04-.32.34-.64.69-.96,1.03-.96,1.04-1.88,2.07-2.76,3.1-1.18,1.37-2.31,2.75-3.39,4.12-.54.69-1.06,1.37-1.58,2.06-.76,1.03-1.5,2.05-2.21,3.08-.47.68-.92,1.37-1.37,2.05-.5.77-.99,1.55-1.45,2.32-.43.7-.83,1.4-1.23,2.11-.04.06-.08.13-.12.2-.41.74-.8,1.47-1.18,2.2l-.03.06c-.15.28-.29.56-.43.84-.28.54-.54,1.09-.79,1.63-.18.39-.36.78-.53,1.17-.61,1.36-1.15,2.7-1.64,4.05-.25.71-.49,1.41-.7,2.11-.1.3-.2.6-.28.9-.15.5-.29,1-.42,1.5l-.03.12c-.08.31-.16.62-.23.93-.23.93-.42,1.86-.58,2.77-.06.31-.11.63-.15.94-.05.3-.09.6-.13.89,0,.03,0,.05-.01.08-.07.58-.14,1.16-.19,1.73-.02.15-.03.31-.04.46-.02.27-.04.53-.06.79-.01.26-.03.52-.04.79,0,.11,0,.23-.01.34-.04,1.6,0,3.18.15,4.74.1.99.24,1.98.41,2.95h0c.18.98.4,1.95.66,2.9h-.02s-.05.03-.05.03l.24.69.5,1.46s.03.11.05.16l9.72,28.22,4.32,12.55-142.61-39.13,202.24-268.6,165.29,45.47,4.11,1.13,151.39,41.65-78.39,104.11-.04.05Z"/>
  <path class="cls-3" d="M2003.42,460.16l-78.39,104.11-6.42-18.56-4.13-12.07v-3.04l-1.01.36c-3.78-8.87-11.11-16.07-21.83-21.44-7.02-3.52-15.36-6.16-24.88-7.9-1.7-.31-3.44-.6-5.21-.86-.61-.09-1.22-.17-1.84-.26-.88-.12-1.77-.22-2.67-.32-.97-.11-1.96-.21-2.95-.31-.5-.05-1-.09-1.5-.13-19.79-1.72-43.06-.15-68.12,4.87-2.66.53-5.33,1.1-8.02,1.71-2.11.48-4.23.98-6.36,1.5-1.13.27-2.27.56-3.42.86-.99.25-1.98.51-2.97.78-.89.23-1.79.47-2.68.72-1.09.3-2.18.6-3.28.91-3.36.96-6.74,1.97-10.14,3.04-2.12.67-4.26,1.37-6.39,2.08-1.1.36-2.21.74-3.31,1.12-1.26.43-2.51.87-3.75,1.32-.01.01-.02.01-.04.02-1.87.66-3.72,1.34-5.56,2.03-1.85.69-3.67,1.39-5.49,2.11-.01.01-.02.01-.04.02-2.74,1.07-5.45,2.17-8.12,3.31-.9.38-1.78.76-2.67,1.14-11.83,5.1-23.05,10.72-33.47,16.72-1.04.6-2.08,1.2-3.1,1.81-14.37,8.52-27.14,17.79-37.74,27.51-.43.39-.85.78-1.27,1.18-.67.63-1.34,1.26-1.99,1.9-.71.68-1.41,1.37-2.1,2.07-.34.34-.68.69-1.02,1.03-.34.35-.67.69-1,1.03-.34.35-.67.69-.98,1.04-.32.34-.64.69-.96,1.03-.96,1.04-1.88,2.07-2.76,3.1-1.2,1.38-2.33,2.75-3.39,4.12-.56.69-1.08,1.38-1.58,2.06-.78,1.03-1.52,2.06-2.21,3.08-.49.68-.94,1.37-1.37,2.05-.5.77-.99,1.55-1.45,2.32-.43.7-.83,1.4-1.23,2.11-.04.06-.08.13-.12.2-.41.74-.8,1.47-1.18,2.2l-.03.06s-.02.01-.02.02c-.14.27-.28.55-.41.82-.28.54-.54,1.09-.79,1.63-.19.39-.36.78-.53,1.17-.61,1.36-1.15,2.7-1.64,4.05-.25.7-.49,1.41-.7,2.11-.1.3-.2.6-.28.9-.15.51-.29,1-.42,1.5l-.03.12c-.09.31-.16.62-.23.93-.23.93-.42,1.86-.58,2.77-.3,1.65-.49,3.28-.58,4.89-.01.26-.03.52-.04.79,0,.11,0,.23-.01.34-.04,1.6,0,3.18.15,4.74.19,1.99.54,3.94,1.05,5.86l-.05.02.24.69c.16.55.33,1.1.52,1.65l9.75,28.19,4.32,12.55-142.61-39.13,202.24-268.6,165.29,45.47c.53.46,1.16.82,1.88,1.02.45.13.9.19,1.35.19.3,0,.59-.03.88-.08l151.39,41.65Z"/>
  <polygon class="cls-3" points="3407.26 983.18 3220.02 1032.46 3276.35 1075.97 3153.44 1235.41 3228.03 1292.73 3350.94 1133.29 3407.28 1176.8 3407.26 983.18"/>
  <path class="cls-3" d="M1878.62,255.65c-3.98,13.62.24,26.93,9.42,29.68,9.31,2.65,19.94-6.31,23.95-20.19,3.97-13.62-7.49-36.59-7.49-36.59,0,0-22.03,13.32-25.88,27.09h0Z"/>
  <path class="cls-3" d="M1908.88,226.37c-.61-1.23-1.71-2.14-3.02-2.52-1.31-.38-2.72-.2-3.9.51-2.42,1.47-23.78,14.74-28.05,29.94-4.18,14.36-.46,28.13,8.53,33.78h0c1.31.84,2.73,1.49,4.26,1.95,1.55.44,3.12.66,4.68.66.17,0,.34,0,.51-.02,10.43-.29,20.7-9.93,24.8-24.16,4.38-15.03-6.55-37.62-7.81-40.14ZM1907.29,263.78c-2.89,9.99-9.95,17.28-16.06,17.11-.61-.01-1.2-.1-1.78-.26-.52-.15-1.01-.37-1.48-.64h-.01c-5.32-3.07-7.5-13.17-4.64-22.97,0-.02.01-.04.02-.06,2.14-7.69,12.15-16.2,19.05-21.13,3.2,7.84,7.11,20.34,4.9,27.95Z"/>
  <path class="cls-3" d="M1893.19,285.65c-.02.19-.07.37-.12.56-.45,1.56-.84,3.04-1.18,4.46-3,12.44-2.23,19.92-1.4,27.79.96,9.3,1.97,18.93-2.91,35.95-4.89,17.03-10.91,24.64-16.73,32-5.41,6.84-10.52,13.3-14.85,28.12-.05.17-.1.34-.15.51-.19.66-.5,1.24-.91,1.74-.73.91-1.77,1.52-2.91,1.73-.29.05-.58.08-.88.08-.45,0-.9-.06-1.35-.19-.72-.2-1.35-.56-1.88-1.02-.87-.77-1.45-1.83-1.62-2.98-.1-.67-.06-1.37.14-2.06.04-.14.08-.27.12-.41,4.86-16.75,10.83-24.3,16.61-31.6,5.47-6.91,10.64-13.45,14.99-28.62,4.36-15.2,3.5-23.48,2.59-32.24-.88-8.44-1.79-17.14,1.69-31.38.36-1.47.76-2.99,1.22-4.58.05-.16.1-.31.16-.46.69-1.76,2.33-2.92,4.14-3.06h.01c.58-.05,1.17,0,1.75.17.56.16,1.07.41,1.51.73,1.48,1.06,2.28,2.9,1.96,4.76Z"/>
  <path class="cls-3" d="M1704.86,651.56c23.2-14.39,48.02-25.52,66.25-31.94,18.25-6.43,43.4-12.86,69.17-16.25-48.19,5.93-94.25,22.31-135.42,48.19ZM1686.2,664.15c-.09.07-.18.14-.26.21.44-.33.88-.65,1.32-.98-.35.26-.71.51-1.06.77Z"/>
  <path class="cls-2" d="M1704.86,651.56c23.2-14.39,48.02-25.52,66.25-31.94,18.25-6.43,43.4-12.86,69.17-16.25-48.19,5.93-94.25,22.31-135.42,48.19ZM1688.71,662.34c4.57-3.25,9.21-6.38,13.91-9.38-4.74,2.99-9.4,6.12-13.91,9.38ZM1686.2,664.15c-.09.07-.18.14-.26.21.44-.33.88-.65,1.32-.98-.35.26-.71.51-1.06.77ZM1704.86,651.56c23.2-14.39,48.02-25.52,66.25-31.94,18.25-6.43,43.4-12.86,69.17-16.25-48.19,5.93-94.25,22.31-135.42,48.19ZM1688.71,662.34c4.57-3.25,9.21-6.38,13.91-9.38-4.74,2.99-9.4,6.12-13.91,9.38ZM1686.2,664.15c-.09.07-.18.14-.26.21.44-.33.88-.65,1.32-.98-.35.26-.71.51-1.06.77ZM1704.86,651.56c23.2-14.39,48.02-25.52,66.25-31.94,18.25-6.43,43.4-12.86,69.17-16.25-48.19,5.93-94.25,22.31-135.42,48.19ZM1688.71,662.34c4.57-3.25,9.21-6.38,13.91-9.38-4.74,2.99-9.4,6.12-13.91,9.38ZM1686.2,664.15c-.09.07-.18.14-.26.21.44-.33.88-.65,1.32-.98-.35.26-.71.51-1.06.77ZM1704.86,651.56c23.2-14.39,48.02-25.52,66.25-31.94,18.25-6.43,43.4-12.86,69.17-16.25-48.19,5.93-94.25,22.31-135.42,48.19ZM1688.71,662.34c4.57-3.25,9.21-6.38,13.91-9.38-4.74,2.99-9.4,6.12-13.91,9.38ZM1686.2,664.15c-.09.07-.18.14-.26.21.44-.33.88-.65,1.32-.98-.35.26-.71.51-1.06.77ZM1704.86,651.56c23.2-14.39,48.02-25.52,66.25-31.94,18.25-6.43,43.4-12.86,69.17-16.25-48.19,5.93-94.25,22.31-135.42,48.19ZM1688.71,662.34c4.57-3.25,9.21-6.38,13.91-9.38-4.74,2.99-9.4,6.12-13.91,9.38ZM1686.2,664.15c-.09.07-.18.14-.26.21.44-.33.88-.65,1.32-.98-.35.26-.71.51-1.06.77ZM1652.88,736c.12.43.25.87.4,1.3h.04s-.44-1.3-.44-1.3ZM1923.41,574.55l-10.24-29.62-2.68-7.76-.8-2.31h0c-.27-.79-.57-1.55-.91-2.29-14.73-33.39-89.26-38.24-169.31-10.59-1.1.38-2.19.76-3.28,1.14-1.1.4-2.19.8-3.28,1.2-1.25.46-2.51.92-3.75,1.39-2.26.86-4.5,1.73-6.71,2.62-3.98,1.6-7.88,3.25-11.71,4.96-1.53.68-3.04,1.36-4.55,2.06-.75.35-1.5.7-2.24,1.05-.75.35-1.49.7-2.23,1.06-.74.35-1.47.71-2.2,1.07-1.26.62-2.51,1.24-3.76,1.87-7.44,3.77-14.5,7.71-21.13,11.77-1.12.69-2.22,1.38-3.31,2.07-.76.48-1.51.96-2.25,1.44-.62.4-1.23.8-1.84,1.2-.61.4-1.22.81-1.82,1.21-1.16.78-2.31,1.57-3.44,2.35-1.79,1.26-3.55,2.52-5.26,3.79-.78.58-1.55,1.16-2.3,1.73-.73.55-1.44,1.11-2.15,1.66-1,.78-1.99,1.57-2.96,2.37-.5.4-1,.81-1.49,1.22-2.24,1.85-4.38,3.71-6.42,5.59-14.58,13.31-24.37,27.01-27.96,39.79-1.34,4.74-1.83,9.35-1.38,13.77.23,2.37.73,4.68,1.5,6.92t.01.02l10.8,31.22,18.07,52.27c.47-2.81,1.22-5.64,2.25-8.5l-25.69-74.29-.8-2.3s0-.01-.01-.02c-.26-.77-.49-1.55-.67-2.35-3.46-14.7,6.25-33.75,27.02-52.78,23.28-21.33,57.57-40.49,96.53-53.94,38.99-13.47,77.78-19.57,109.24-17.2,28.08,2.12,47.48,11.1,53.83,24.77.35.74.66,1.5.93,2.27h0s.8,2.32.8,2.32l25.74,74.44c2.59,1.63,4.93,3.4,7.03,5.33l-15.22-43.99ZM1704.86,651.56c23.2-14.39,48.02-25.52,66.25-31.94,18.25-6.43,43.4-12.86,69.17-16.25-48.19,5.93-94.25,22.31-135.42,48.19ZM1688.71,662.34c4.57-3.25,9.21-6.38,13.91-9.38-4.74,2.99-9.4,6.12-13.91,9.38ZM1686.2,664.15c-.09.07-.18.14-.26.21.44-.33.88-.65,1.32-.98-.35.26-.71.51-1.06.77ZM1686.2,664.15c-.09.07-.18.14-.26.21.44-.33.88-.65,1.32-.98-.35.26-.71.51-1.06.77ZM1688.71,662.34c4.57-3.25,9.21-6.38,13.91-9.38-4.74,2.99-9.4,6.12-13.91,9.38ZM1704.86,651.56c23.2-14.39,48.02-25.52,66.25-31.94,18.25-6.43,43.4-12.86,69.17-16.25-48.19,5.93-94.25,22.31-135.42,48.19ZM1686.2,664.15c-.09.07-.18.14-.26.21.44-.33.88-.65,1.32-.98-.35.26-.71.51-1.06.77ZM1688.71,662.34c4.57-3.25,9.21-6.38,13.91-9.38-4.74,2.99-9.4,6.12-13.91,9.38ZM1704.86,651.56c23.2-14.39,48.02-25.52,66.25-31.94,18.25-6.43,43.4-12.86,69.17-16.25-48.19,5.93-94.25,22.31-135.42,48.19ZM1686.2,664.15c-.09.07-.18.14-.26.21.44-.33.88-.65,1.32-.98-.35.26-.71.51-1.06.77ZM1688.71,662.34c4.57-3.25,9.21-6.38,13.91-9.38-4.74,2.99-9.4,6.12-13.91,9.38ZM1704.86,651.56c23.2-14.39,48.02-25.52,66.25-31.94,18.25-6.43,43.4-12.86,69.17-16.25-48.19,5.93-94.25,22.31-135.42,48.19ZM1686.2,664.15c-.09.07-.18.14-.26.21.44-.33.88-.65,1.32-.98-.35.26-.71.51-1.06.77ZM1688.71,662.34c4.57-3.25,9.21-6.38,13.91-9.38-4.74,2.99-9.4,6.12-13.91,9.38ZM1704.86,651.56c23.2-14.39,48.02-25.52,66.25-31.94,18.25-6.43,43.4-12.86,69.17-16.25-48.19,5.93-94.25,22.31-135.42,48.19Z"/>
  <path class="cls-3" d="M1653.32,737.29c.06.17.11.34.14.51-.06-.16-.11-.32-.17-.48t-.01-.02c-.15-.43-.28-.87-.4-1.3l.44,1.29Z"/>
  <path class="cls-3" d="M1949.63,635.56c-.07-.22-.14-.45-.22-.67-2.17-6.29-5.78-11.75-10.78-16.35-2.1-1.93-4.44-3.7-7.03-5.33l-25.74-74.44-.8-2.31h0c-.27-.78-.58-1.54-.93-2.28-6.35-13.67-25.75-22.65-53.83-24.77-31.46-2.37-70.25,3.73-109.24,17.2-38.96,13.45-73.25,32.61-96.53,53.94-20.77,19.03-30.48,38.08-27.02,52.78.18.8.41,1.58.67,2.35t.01.02l.8,2.3,25.69,74.29c-1.03,2.86-1.78,5.69-2.25,8.5-1.02,6.18-.67,12.22,1.07,18.09l-18.54-53.62-.97-2.81-5.31-15.36-9.75-28.19c-.19-.55-.36-1.1-.52-1.65-.07-.24-.14-.48-.19-.71-.26-.96-.47-1.93-.64-2.9h0c-.18-.99-.32-1.97-.41-2.96-.15-1.56-.19-3.14-.15-4.74.01-.11.01-.23.01-.34.01-.27.03-.53.04-.79.02-.26.04-.52.06-.79.01-.15.02-.31.04-.46.05-.57.12-1.15.19-1.73.01-.03.01-.05.01-.08.04-.29.08-.59.13-.89.04-.31.09-.63.15-.94.16-.91.35-1.84.58-2.77.07-.31.15-.62.23-.93l.03-.12c.13-.5.27-1,.42-1.5.08-.3.18-.6.28-.9.21-.7.45-1.4.7-2.11.49-1.35,1.03-2.69,1.64-4.05.17-.39.35-.78.53-1.17.25-.54.51-1.09.79-1.63.13-.27.27-.55.41-.82,0-.01.01-.01.02-.02l.03-.06c.38-.73.77-1.46,1.18-2.2.04-.07.08-.14.12-.2.4-.71.8-1.41,1.23-2.11.46-.77.95-1.55,1.45-2.32.43-.68.88-1.37,1.37-2.05.69-1.02,1.43-2.05,2.21-3.08.5-.68,1.02-1.37,1.58-2.06,1.06-1.37,2.19-2.74,3.39-4.12.88-1.03,1.8-2.06,2.76-3.1.32-.34.64-.69.96-1.03.31-.35.64-.69.98-1.04.33-.34.66-.68,1-1.03.34-.34.68-.69,1.02-1.03.69-.7,1.39-1.39,2.1-2.07.65-.64,1.32-1.27,1.99-1.9.42-.4.84-.79,1.27-1.18,10.6-9.72,23.37-18.99,37.74-27.51,1.02-.61,2.06-1.21,3.1-1.81,10.42-6,21.64-11.62,33.47-16.72.89-.38,1.77-.76,2.67-1.14,2.67-1.13,5.38-2.23,8.12-3.31.02-.01.03-.01.04-.02,1.82-.72,3.65-1.42,5.49-2.11,1.84-.69,3.69-1.37,5.56-2.03.02-.01.03-.01.04-.02,1.24-.44,2.48-.87,3.72-1.3,1.11-.38,2.23-.76,3.34-1.14,2.13-.71,4.27-1.41,6.39-2.08,3.4-1.07,6.78-2.08,10.14-3.04,1.1-.31,2.19-.61,3.28-.91.89-.25,1.79-.49,2.68-.72.99-.27,1.98-.53,2.97-.78,1.15-.3,2.29-.59,3.42-.86,2.13-.52,4.25-1.02,6.36-1.5,2.69-.61,5.36-1.18,8.02-1.71,1.16-.23,2.31-.46,3.47-.68,1.12-.2,2.24-.41,3.36-.6,1-.18,2-.35,3-.52.35-.07.7-.12,1.04-.18.21-.03.43-.07.64-.1l1-.16c.62-.1,1.24-.2,1.85-.29.61-.09,1.23-.19,1.84-.27h.01s.06-.02.08-.02h.04s.03-.01.05-.01h.02l.18-.03c.32-.04.64-.09.95-.13.33-.05.65-.09.98-.13,1.8-.24,3.59-.47,5.37-.68.9-.11,1.8-.21,2.7-.31l.78-.09c.67-.07,1.34-.14,2.01-.2.39-.04.78-.08,1.17-.11.8-.08,1.6-.15,2.39-.21l.75-.06c.13-.01.26-.02.39-.03.87-.07,1.72-.13,2.58-.19,1.08-.07,2.15-.14,3.22-.2,1.91-.1,3.8-.18,5.66-.24.79-.02,1.57-.04,2.36-.05.45-.01.9-.02,1.35-.02h.11s.02-.01.03-.01h.04s.01,0,.01.01h.32c.28-.01.56-.01.84-.01.42-.01.84-.01,1.26-.01,1.35,0,2.69.01,4.01.04,1.76.03,3.5.09,5.21.16,1.72.08,3.4.19,5.07.31.15.01.31.02.46.03.51.04,1.01.08,1.52.12.5.04,1,.08,1.5.13.99.1,1.98.2,2.95.31.9.1,1.79.2,2.67.32.62.09,1.23.17,1.84.26,1.77.26,3.51.55,5.21.86.42.08.83.16,1.24.24.35.07.7.14,1.04.21.18.03.36.07.54.11.41.08.82.17,1.22.26.16.04.32.07.49.11,22.18,5.02,37.7,15.35,43.02,30.71l4.3,12.45,6.42,18.56.97,2.79.96,2.79,22.48,65.01c.08.23.15.47.19.7Z"/>
  <path class="cls-3" d="M1653.46,737.8c-.06-.16-.11-.32-.17-.48t-.01-.02c-.15-.43-.28-.87-.4-1.3l.44,1.29c.06.17.11.34.14.51Z"/>
  <path class="cls-3" d="M1688.71,662.34c4.57-3.25,9.21-6.38,13.91-9.38-4.74,2.99-9.4,6.12-13.91,9.38Z"/>
  <path class="cls-3" d="M1949.63,635.56c-.07-.22-.14-.45-.22-.67-2.17-6.29-5.78-11.75-10.78-16.35-2.1-1.93-4.44-3.7-7.03-5.33-1.75-1.09-3.61-2.12-5.59-3.07-13.7-6.61-31.59-9.23-50.82-9.23-11.09,0-22.62.87-34.05,2.35l-.86.11c-25.77,3.39-50.92,9.82-69.17,16.25-18.23,6.42-43.05,17.55-66.25,31.94-.75.46-1.5.93-2.24,1.4-4.7,3-9.34,6.13-13.91,9.38-.48.35-.97.7-1.45,1.04-.44.33-.88.65-1.32.98-1.2.89-2.38,1.78-3.55,2.69-19.76,15.3-32.43,30.58-37.71,45.24-1.03,2.86-1.78,5.69-2.25,8.5-1.02,6.18-.67,12.22,1.07,18.09.01.02.01.04.02.06.16.53.33,1.05.51,1.58,7.79,22.46,37.43,34.2,77.79,34.2,28.78-.01,63.03-5.98,98.66-18.28,40.21-13.89,75.71-33.77,99.96-55.98,25-22.9,35.34-45.92,29.19-64.9ZM1653.29,737.32s0-.01-.01-.02c-.15-.43-.28-.87-.4-1.3l.44,1.29c.06.17.11.34.14.51-.06-.16-.11-.32-.17-.48Z"/>
</svg>