<svg width="10000" height="10000" viewBox="0 0 10000 10000" fill="none" xmlns="http://www.w3.org/2000/svg">
<rect width="10000" height="10000" rx="5000" fill="#E41A3A"/>
<path d="M7293.38 6371.54V6112.17H7422.69C7436.8 6112.17 7449.66 6115.45 7461.25 6122C7473.1 6128.56 7482.42 6137.5 7489.23 6148.85C7496.03 6160.19 7499.44 6172.92 7499.44 6187.03V6193.46C7499.44 6207.57 7495.91 6220.68 7488.85 6232.78C7481.79 6244.63 7472.34 6254.2 7460.49 6261.51C7448.9 6268.82 7435.92 6272.48 7421.55 6272.48H7356.52V6371.54H7293.38ZM7356.52 6225.22H7404.92C7411.22 6225.22 7416.64 6223.83 7421.17 6221.06C7425.71 6218.29 7429.24 6214.51 7431.76 6209.72C7434.53 6204.68 7435.92 6198.88 7435.92 6192.33C7435.92 6183.76 7433.15 6176.19 7427.6 6169.64C7422.06 6163.09 7414.37 6159.81 7404.54 6159.81H7356.52V6225.22Z" fill="white"/>
<path d="M7128.32 6375.32C7108.66 6375.32 7091.65 6371.66 7077.28 6364.35C7062.91 6357.04 7051.82 6346.83 7044.01 6333.73C7036.45 6320.62 7032.67 6305.37 7032.67 6287.98V6112.17H7095.81V6287.6C7095.81 6299.45 7099.59 6309.15 7107.15 6316.71C7114.96 6324.02 7125.05 6327.68 7137.4 6327.68C7149.75 6327.68 7159.7 6324.02 7167.27 6316.71C7174.83 6309.15 7178.61 6299.45 7178.61 6287.6V6112.17H7241.75V6287.98C7241.75 6305.37 7237.46 6320.62 7228.89 6333.73C7220.32 6346.83 7208.35 6357.04 7192.97 6364.35C7177.85 6371.66 7160.46 6375.32 7140.8 6375.32H7128.32Z" fill="white"/>
<path d="M6866.32 6375.31C6851.2 6375.31 6836.96 6372.67 6823.6 6367.37C6810.49 6362.08 6798.89 6354.39 6788.81 6344.31C6778.73 6334.23 6770.79 6321.88 6764.99 6307.26C6759.45 6292.64 6756.68 6276.13 6756.68 6257.73V6226.35C6756.68 6207.95 6759.45 6191.44 6764.99 6176.82C6770.79 6162.2 6778.73 6149.85 6788.81 6139.77C6798.89 6129.69 6810.49 6122 6823.6 6116.71C6836.96 6111.41 6851.2 6108.77 6866.32 6108.77H6881.82C6896.94 6108.77 6911.06 6111.41 6924.17 6116.71C6937.52 6122 6949.24 6129.69 6959.33 6139.77C6969.41 6149.85 6977.22 6162.2 6982.77 6176.82C6988.57 6191.44 6991.46 6207.95 6991.46 6226.35V6257.73C6991.46 6276.13 6988.57 6292.64 6982.77 6307.26C6977.22 6321.88 6969.41 6334.23 6959.33 6344.31C6949.24 6354.39 6937.52 6362.08 6924.17 6367.37C6911.06 6372.67 6896.94 6375.31 6881.82 6375.31H6866.32ZM6873.88 6327.67C6881.19 6327.67 6887.87 6326.54 6893.92 6324.27C6899.97 6322 6905.26 6318.6 6909.8 6314.06C6914.59 6309.27 6918.24 6303.35 6920.76 6296.29C6923.28 6289.24 6924.54 6280.79 6924.54 6270.96V6213.12C6924.54 6203.29 6923.28 6194.84 6920.76 6187.78C6918.24 6180.73 6914.59 6174.93 6909.8 6170.39C6905.26 6165.6 6899.97 6162.08 6893.92 6159.81C6887.87 6157.54 6881.32 6156.4 6874.26 6156.4C6867.2 6156.4 6860.52 6157.54 6854.22 6159.81C6848.17 6162.08 6842.75 6165.6 6837.96 6170.39C6833.43 6174.93 6829.9 6180.73 6827.38 6187.78C6824.86 6194.84 6823.6 6203.29 6823.6 6213.12V6270.96C6823.6 6280.79 6824.86 6289.24 6827.38 6296.29C6829.9 6303.35 6833.43 6309.27 6837.96 6314.06C6842.75 6318.6 6848.17 6322 6854.22 6324.27C6860.27 6326.54 6866.82 6327.67 6873.88 6327.67Z" fill="white"/>
<path d="M6695.16 6374.56C6685.83 6374.56 6677.64 6373.17 6670.58 6370.4C6663.78 6367.38 6658.36 6362.34 6654.33 6355.28C6650.54 6348.22 6648.65 6338.39 6648.65 6325.79C6648.65 6318.23 6647.9 6311.29 6646.39 6304.99C6644.87 6298.44 6642.6 6292.77 6639.58 6287.98C6636.56 6283.19 6632.65 6279.41 6627.86 6276.64C6623.07 6273.86 6617.27 6272.48 6610.47 6272.48H6572.28V6371.54H6509.9V6112.17H6645.25C6657.6 6112.17 6669.07 6114.82 6679.66 6120.11C6690.49 6125.15 6699.32 6132.46 6706.12 6142.04C6712.93 6151.62 6716.33 6163.21 6716.33 6176.82C6716.33 6187.91 6714.19 6198 6709.9 6207.07C6705.62 6216.14 6699.95 6223.96 6692.89 6230.51C6686.08 6237.06 6678.52 6241.98 6670.2 6245.26V6247.15C6675.5 6248.66 6680.54 6251.18 6685.33 6254.71C6690.37 6257.99 6694.78 6262.27 6698.56 6267.56C6702.34 6272.6 6705.37 6278.53 6707.63 6285.33C6710.16 6292.14 6711.42 6299.7 6711.42 6308.02C6711.42 6314.07 6711.67 6319.74 6712.17 6325.03C6712.68 6330.32 6713.56 6335.11 6714.82 6339.4C6716.08 6343.43 6717.97 6346.83 6720.49 6349.61C6723.26 6352.38 6726.66 6354.4 6730.7 6355.66V6368.89C6725.66 6370.91 6719.99 6372.29 6713.68 6373.05C6707.38 6374.06 6701.21 6374.56 6695.16 6374.56ZM6572.28 6225.22H6624.08C6629.37 6225.22 6634.16 6223.58 6638.45 6220.3C6642.73 6216.77 6646.13 6212.24 6648.65 6206.69C6651.17 6201.15 6652.43 6195.1 6652.43 6188.54C6652.43 6179.22 6649.79 6172.16 6644.5 6167.37C6639.2 6162.33 6632.65 6159.81 6624.84 6159.81H6572.28V6225.22Z" fill="white"/>
<path d="M6343.03 6375.32C6327.91 6375.32 6313.92 6372.67 6301.06 6367.38C6288.21 6362.08 6276.99 6354.4 6267.41 6344.31C6258.09 6334.23 6250.78 6321.88 6245.48 6307.26C6240.44 6292.64 6237.92 6276.13 6237.92 6257.73V6225.97C6237.92 6207.32 6240.69 6190.81 6246.24 6176.45C6251.78 6161.83 6259.6 6149.48 6269.68 6139.39C6280.01 6129.31 6292.11 6121.62 6305.98 6116.33C6320.09 6111.04 6335.34 6108.39 6351.72 6108.39H6360.04C6374.16 6108.39 6387.39 6110.53 6399.74 6114.82C6412.09 6119.1 6422.93 6125.4 6432.26 6133.72C6441.58 6141.79 6448.89 6151.74 6454.18 6163.59C6459.48 6175.44 6462.12 6189.05 6462.12 6204.42H6403.52C6403.52 6192.83 6401.38 6183.5 6397.09 6176.45C6393.06 6169.39 6387.26 6164.22 6379.7 6160.94C6372.39 6157.67 6363.82 6156.03 6353.99 6156.03C6346.68 6156.03 6340 6157.16 6333.95 6159.43C6328.16 6161.45 6322.99 6164.85 6318.45 6169.64C6314.17 6174.18 6310.77 6180.1 6308.24 6187.41C6305.98 6194.47 6304.84 6202.91 6304.84 6212.74V6270.97C6304.84 6280.8 6305.98 6289.24 6308.24 6296.3C6310.77 6303.35 6314.17 6309.28 6318.45 6314.07C6322.99 6318.6 6328.16 6322.01 6333.95 6324.27C6340 6326.54 6346.68 6327.68 6353.99 6327.68C6361.3 6327.68 6367.98 6326.92 6374.03 6325.41C6380.33 6323.64 6385.63 6321 6389.91 6317.47C6394.45 6313.69 6397.85 6308.9 6400.12 6303.1C6402.64 6297.05 6403.9 6289.62 6403.9 6280.8V6271.72H6347.94V6229.75H6462.12V6319.74C6462.12 6331.84 6462.38 6341.79 6462.88 6349.61C6463.38 6357.17 6464.01 6364.48 6464.77 6371.53H6430.36L6420.91 6341.67C6413.1 6352 6402.26 6360.19 6388.4 6366.24C6374.79 6372.29 6360.67 6375.32 6346.05 6375.32H6343.03Z" fill="white"/>
<path d="M6016.08 6375.32C6000.45 6375.32 5985.71 6373.05 5971.84 6368.51C5958.23 6363.72 5946.26 6356.54 5935.93 6346.96C5925.84 6337.13 5917.9 6324.9 5912.11 6310.29C5906.31 6295.41 5903.41 6277.9 5903.41 6257.73V6225.97C5903.41 6206.31 5906.31 6189.17 5912.11 6174.55C5918.16 6159.94 5926.35 6147.71 5936.68 6137.88C5947.02 6128.05 5958.86 6120.74 5972.22 6115.95C5985.83 6110.91 6000.2 6108.39 6015.32 6108.39H6023.64C6038.01 6108.39 6051.49 6110.53 6064.09 6114.82C6076.95 6118.85 6088.17 6125.28 6097.74 6134.1C6107.32 6142.67 6114.76 6153.76 6120.05 6167.37C6125.6 6180.73 6128.37 6196.74 6128.37 6215.39H6069.01C6069.01 6200.01 6066.99 6188.04 6062.96 6179.47C6059.18 6170.9 6053.51 6164.85 6045.95 6161.32C6038.38 6157.79 6029.44 6156.03 6019.1 6156.03C6011.79 6156.03 6005.11 6157.16 5999.06 6159.43C5993.27 6161.45 5988.23 6164.72 5983.94 6169.26C5979.66 6173.8 5976.25 6179.72 5973.73 6187.03C5971.46 6194.09 5970.33 6202.66 5970.33 6212.74V6270.97C5970.33 6284.07 5972.35 6294.91 5976.38 6303.48C5980.41 6311.8 5986.08 6317.97 5993.39 6322.01C6000.7 6325.79 6009.27 6327.68 6019.1 6327.68C6030.7 6327.68 6040.28 6325.91 6047.84 6322.38C6055.65 6318.86 6061.57 6312.93 6065.61 6304.61C6069.64 6296.04 6071.66 6284.07 6071.66 6268.7H6128.37C6128.37 6286.09 6125.72 6301.46 6120.43 6314.82C6115.14 6328.18 6107.7 6339.4 6098.12 6348.47C6088.54 6357.29 6077.45 6363.97 6064.85 6368.51C6052.25 6373.05 6038.76 6375.32 6024.4 6375.32H6016.08Z" fill="white"/>
<path d="M5636.78 6371.54L5722.6 6234.67L5645.47 6112.17H5718.44L5765.32 6189.68H5766.84L5813.72 6112.17H5881.4L5803.89 6235.05L5889.71 6371.54H5815.99L5761.17 6280.04H5759.65L5704.83 6371.54H5636.78Z" fill="white"/>
<path d="M5438.79 6371.54V6112.17H5624.05L5617.63 6160.57H5501.18V6215.77H5610.06V6262.65H5501.18V6323.14H5618.38L5625.19 6371.54H5438.79Z" fill="white"/>
<path d="M5269.8 6371.54V6161.32H5198.72V6112.17H5404.77V6161.32H5333.32V6371.54H5269.8Z" fill="white"/>
<path d="M5049.05 6371.54V6325.41H5079.68V6158.3H5049.05V6112.17H5173.44V6158.3H5143.2V6325.41H5173.44V6371.54H5049.05Z" fill="white"/>
<path d="M4802.92 6371.54V6271.72L4715.21 6112.17H4786.29L4836.57 6211.99H4838.08L4889.5 6112.17H4953.78L4866.44 6271.72V6371.54H4802.92Z" fill="white"/>
<path d="M4496.18 6371.54V6112.17H4626.61C4639.72 6112.17 4651.44 6114.57 4661.78 6119.36C4672.36 6124.14 4680.68 6131.08 4686.73 6140.15C4692.78 6149.22 4695.8 6160.19 4695.8 6173.04C4695.8 6185.39 4693.66 6195.85 4689.38 6204.42C4685.09 6212.74 4679.54 6219.42 4672.74 6224.46C4666.19 6229.5 4659.13 6233.28 4651.57 6235.8V6237.69C4657.11 6238.95 4662.78 6240.97 4668.58 6243.74C4674.38 6246.26 4679.8 6249.92 4684.84 6254.71C4689.88 6259.25 4693.91 6264.92 4696.94 6271.72C4700.21 6278.53 4701.85 6286.72 4701.85 6296.3C4701.85 6311.17 4698.32 6324.28 4691.27 6335.62C4684.46 6346.71 4675.39 6355.53 4664.04 6362.08C4652.7 6368.38 4639.97 6371.54 4625.86 6371.54H4496.18ZM4555.53 6324.65H4609.6C4615.9 6324.65 4621.32 6323.27 4625.86 6320.49C4630.39 6317.47 4633.92 6313.44 4636.44 6308.4C4639.22 6303.35 4640.6 6297.68 4640.6 6291.38C4640.6 6284.83 4639.22 6279.41 4636.44 6275.12C4633.67 6270.84 4629.89 6267.56 4625.1 6265.29C4620.56 6263.03 4615.52 6261.89 4609.98 6261.89H4555.53V6324.65ZM4555.53 6216.52H4607.71C4613.76 6216.52 4618.8 6215.14 4622.83 6212.36C4627.12 6209.34 4630.27 6205.43 4632.28 6200.64C4634.55 6195.6 4635.69 6190.31 4635.69 6184.76C4635.69 6175.44 4633.29 6168.63 4628.5 6164.35C4623.97 6159.81 4617.67 6157.54 4609.6 6157.54H4555.53V6216.52Z" fill="white"/>
<path d="M4191.94 6371.54V6112.17H4377.2L4370.77 6160.57H4254.32V6215.77H4363.21V6262.65H4254.32V6323.14H4371.53L4378.33 6371.54H4191.94Z" fill="white"/>
<path d="M4022.94 6371.54V6161.32H3951.86V6112.17H4157.92V6161.32H4086.46V6371.54H4022.94Z" fill="white"/>
<path d="M3794.21 6371.54V6271.72L3706.5 6112.17H3777.58L3827.86 6211.99H3829.37L3880.79 6112.17H3945.07L3857.73 6271.72V6371.54H3794.21Z" fill="white"/>
<path d="M3487.47 6371.54V6112.17H3617.91C3631.01 6112.17 3642.73 6114.57 3653.07 6119.36C3663.65 6124.14 3671.97 6131.08 3678.02 6140.15C3684.07 6149.22 3687.1 6160.19 3687.1 6173.04C3687.1 6185.39 3684.95 6195.85 3680.67 6204.42C3676.38 6212.74 3670.84 6219.42 3664.03 6224.46C3657.48 6229.5 3650.42 6233.28 3642.86 6235.8V6237.69C3648.41 6238.95 3654.08 6240.97 3659.87 6243.74C3665.67 6246.26 3671.09 6249.92 3676.13 6254.71C3681.17 6259.25 3685.21 6264.92 3688.23 6271.72C3691.51 6278.53 3693.14 6286.72 3693.14 6296.3C3693.14 6311.17 3689.62 6324.28 3682.56 6335.62C3675.75 6346.71 3666.68 6355.53 3655.34 6362.08C3643.99 6368.38 3631.27 6371.54 3617.15 6371.54H3487.47ZM3546.83 6324.65H3600.89C3607.19 6324.65 3612.61 6323.27 3617.15 6320.49C3621.69 6317.47 3625.22 6313.44 3627.74 6308.4C3630.51 6303.35 3631.9 6297.68 3631.9 6291.38C3631.9 6284.83 3630.51 6279.41 3627.74 6275.12C3624.96 6270.84 3621.18 6267.56 3616.39 6265.29C3611.86 6263.03 3606.82 6261.89 3601.27 6261.89H3546.83V6324.65ZM3546.83 6216.52H3599C3605.05 6216.52 3610.09 6215.14 3614.13 6212.36C3618.41 6209.34 3621.56 6205.43 3623.58 6200.64C3625.85 6195.6 3626.98 6190.31 3626.98 6184.76C3626.98 6175.44 3624.59 6168.63 3619.8 6164.35C3615.26 6159.81 3608.96 6157.54 3600.89 6157.54H3546.83V6216.52Z" fill="white"/>
<path d="M3322.41 6375.32C3302.75 6375.32 3285.73 6371.66 3271.37 6364.35C3257 6357.04 3245.91 6346.83 3238.1 6333.73C3230.53 6320.62 3226.75 6305.37 3226.75 6287.98V6112.17H3289.89V6287.6C3289.89 6299.45 3293.67 6309.15 3301.24 6316.71C3309.05 6324.02 3319.13 6327.68 3331.48 6327.68C3343.83 6327.68 3353.79 6324.02 3361.35 6316.71C3368.91 6309.15 3372.69 6299.45 3372.69 6287.6V6112.17H3435.83V6287.98C3435.83 6305.37 3431.55 6320.62 3422.98 6333.73C3414.41 6346.83 3402.44 6357.04 3387.06 6364.35C3371.94 6371.66 3354.55 6375.32 3334.89 6375.32H3322.41Z" fill="white"/>
<path d="M3075.25 6375.32C3059.62 6375.32 3044.87 6373.05 3031.01 6368.51C3017.4 6363.72 3005.43 6356.54 2995.09 6346.96C2985.01 6337.13 2977.07 6324.9 2971.27 6310.29C2965.48 6295.41 2962.58 6277.9 2962.58 6257.73V6225.97C2962.58 6206.31 2965.48 6189.17 2971.27 6174.55C2977.32 6159.94 2985.52 6147.71 2995.85 6137.88C3006.18 6128.05 3018.03 6120.74 3031.39 6115.95C3045 6110.91 3059.37 6108.39 3074.49 6108.39H3082.81C3097.17 6108.39 3110.66 6110.53 3123.26 6114.82C3136.12 6118.85 3147.33 6125.28 3156.91 6134.1C3166.49 6142.67 3173.93 6153.76 3179.22 6167.37C3184.76 6180.73 3187.54 6196.74 3187.54 6215.39H3128.18C3128.18 6200.01 3126.16 6188.04 3122.13 6179.47C3118.35 6170.9 3112.68 6164.85 3105.11 6161.32C3097.55 6157.79 3088.61 6156.03 3078.27 6156.03C3070.96 6156.03 3064.28 6157.16 3058.23 6159.43C3052.44 6161.45 3047.39 6164.72 3043.11 6169.26C3038.82 6173.8 3035.42 6179.72 3032.9 6187.03C3030.63 6194.09 3029.5 6202.66 3029.5 6212.74V6270.97C3029.5 6284.07 3031.51 6294.91 3035.55 6303.48C3039.58 6311.8 3045.25 6317.97 3052.56 6322.01C3059.87 6325.79 3068.44 6327.68 3078.27 6327.68C3089.87 6327.68 3099.44 6325.91 3107 6322.38C3114.82 6318.86 3120.74 6312.93 3124.77 6304.61C3128.81 6296.04 3130.82 6284.07 3130.82 6268.7H3187.54C3187.54 6286.09 3184.89 6301.46 3179.6 6314.82C3174.3 6328.18 3166.87 6339.4 3157.29 6348.47C3147.71 6357.29 3136.62 6363.97 3124.02 6368.51C3111.42 6373.05 3097.93 6375.32 3083.56 6375.32H3075.25Z" fill="white"/>
<path d="M2709.89 6371.54V6112.17H2762.82L2846.76 6236.18L2859.99 6259.25L2861.5 6258.49V6112.17H2919.35V6371.54H2864.9L2778.32 6243.37L2769.25 6226.35L2767.74 6226.73V6371.54H2709.89Z" fill="white"/>
<path d="M2540.95 6371.54V6325.41H2571.57V6158.3H2540.95V6112.17H2665.33V6158.3H2635.09V6325.41H2665.33V6371.54H2540.95Z" fill="white"/>
<g clip-path="url(#clip0_957_3404)">
<path d="M3887 4215.08L3880.22 4221.85C3878.66 4223.24 3877.62 4224.98 3876.92 4226.98C3875.97 4228.89 3875.45 4230.88 3875.53 4233.06C3875.53 4235.23 3875.88 4237.22 3876.92 4239.13C3877.53 4241.13 3878.66 4242.78 3880.22 4244.26L3883.44 4246.69C3885.87 4248.08 3888.56 4248.86 3891.43 4248.86L3895.6 4248.25C3898.29 4247.47 3900.63 4246.17 3902.54 4244.17L3909.32 4237.4C3910.88 4236.01 3911.92 4234.27 3912.62 4232.27C3913.57 4230.36 3914.1 4228.37 3914.01 4226.2C3914.01 4224.02 3913.66 4222.03 3912.62 4220.12C3912.01 4218.12 3910.88 4216.47 3909.32 4214.99L3906.11 4212.56C3903.67 4211.17 3900.98 4210.39 3898.11 4210.39L3893.95 4211C3891.25 4211.78 3888.91 4213.08 3887 4215.08Z" fill="white"/>
<path d="M3055.89 5781.35C2625.7 5781.35 2275.77 5413.24 2275.77 4960.8V4598.68H2636.39V4960.8C2636.39 5214.46 2824.6 5420.79 3055.98 5420.79C3287.36 5420.79 3475.57 5214.46 3475.57 4960.8V4599.81H3836.19V4960.8C3836.19 5413.24 3486.17 5781.35 3055.98 5781.35H3055.89Z" fill="white"/>
<path d="M2456.09 4406.68C2564.78 4406.68 2652.9 4318.58 2652.9 4209.9C2652.9 4101.23 2564.78 4013.12 2456.09 4013.12C2347.39 4013.12 2259.28 4101.23 2259.28 4209.9C2259.28 4318.58 2347.39 4406.68 2456.09 4406.68Z" fill="white"/>
<path d="M4033.2 4030.66H3280.44V4389.22H4033.2V4030.66Z" fill="white"/>
<path d="M5242.47 5268.84H4433.33C4438.89 5341.35 4462.26 5396.67 4503.34 5435.05C4544.42 5473.43 4594.97 5492.54 4654.9 5492.54C4744.1 5492.54 4806.11 5454.93 4840.94 5379.64H5221.45C5201.91 5456.32 5166.73 5525.28 5115.83 5586.58C5064.94 5647.89 5001.19 5696 4924.49 5730.83C4847.8 5765.65 4762.08 5783.1 4667.32 5783.1C4553.02 5783.1 4451.23 5758.7 4362.11 5709.9C4272.92 5661.09 4203.17 5591.45 4153.06 5500.87C4102.85 5410.3 4077.75 5304.35 4077.75 5183.13C4077.75 5061.9 4102.51 4956.04 4152.01 4865.38C4201.43 4774.8 4270.83 4705.16 4360.03 4656.35C4449.23 4607.55 4551.63 4583.15 4667.41 4583.15C4783.18 4583.15 4880.63 4606.86 4968.44 4654.18C5056.25 4701.6 5124.87 4769.16 5174.37 4856.95C5223.79 4944.75 5248.63 5047.22 5248.63 5164.28C5248.63 5197.71 5246.55 5232.54 5242.38 5268.84H5242.47ZM4882.89 5070.23C4882.89 5008.92 4861.96 4960.21 4820.18 4923.91C4778.41 4887.7 4726.12 4869.55 4663.41 4869.55C4600.7 4869.55 4552.93 4887 4511.85 4921.82C4470.68 4956.65 4445.32 5006.15 4435.51 5070.23H4882.89Z" fill="white"/>
<path d="M6126.82 5766.32L5903.08 5442.32L5714.87 5766.32H5328.11L5712.78 5170.59L5317.6 4599.88H5719.04L5942.77 4921.8L6130.99 4599.88H6517.75L6126.82 5187.27L6528.26 5766.32H6126.82Z" fill="white"/>
<path d="M6669.37 4865.38C6718.79 4774.8 6787.84 4705.16 6876.35 4656.35C6964.85 4607.55 7066.21 4583.15 7180.51 4583.15C7326.86 4583.15 7449.15 4621.53 7547.47 4698.12C7645.7 4774.8 7710.23 4882.83 7740.89 5022.12H7360.38C7328.34 4932.94 7266.32 4888.39 7174.34 4888.39C7108.77 4888.39 7056.57 4913.83 7017.57 4964.72C6978.57 5015.61 6959.03 5088.38 6959.03 5183.13C6959.03 5277.87 6978.57 5350.73 7017.57 5401.61C7056.57 5452.5 7108.86 5477.95 7174.34 5477.95C7266.32 5477.95 7328.34 5433.4 7360.38 5344.21H7740.89C7710.23 5480.81 7645.44 5588.06 7546.43 5666.13C7447.41 5744.2 7325.47 5783.19 7180.51 5783.19C7066.21 5783.19 6964.76 5758.79 6876.35 5709.98C6787.84 5661.18 6718.79 5591.53 6669.37 5500.96C6619.87 5410.39 6595.11 5304.44 6595.11 5183.21C6595.11 5061.98 6619.87 4956.13 6669.37 4865.47V4865.38Z" fill="white"/>
</g>
<path d="M4730.24 4306.9V4216.27H4780.46V3977.52H4730.24V3886.9H4910.02L4909.59 4216.27H4959.18V4306.9H4730.24Z" fill="white"/>
<path d="M5016.15 4306.9V3886.9H5123.87L5232.22 4043.04L5251.21 4079.12L5254.27 4077.33V3886.9H5372.43V4306.9H5262.18L5150.14 4145.27L5137.26 4119.53L5134.2 4120.8V4306.9H5016.04H5016.15Z" fill="white"/>
<path d="M5618.57 4313.04C5591.66 4313.04 5566.56 4308.92 5543.24 4300.8C5519.92 4292.67 5499.56 4280.65 5482.05 4264.93C5464.54 4249.21 5450.82 4229.9 5441.01 4207.11C5431.2 4184.22 5426.34 4158.37 5426.34 4129.36V4064.47C5426.34 4036.73 5431.41 4011.62 5441.64 3989.15C5451.88 3966.68 5465.91 3947.37 5483.84 3931.33C5501.78 3915.19 5522.35 3902.74 5545.35 3893.98C5568.35 3885.23 5592.61 3880.8 5617.93 3880.8H5635.13C5660.03 3880.8 5683.24 3884.49 5704.66 3891.77C5726.07 3899.15 5744.75 3910.23 5760.68 3925.11C5776.61 3939.98 5788.95 3958.55 5797.71 3980.81C5806.47 4003.07 5810.9 4029.13 5810.9 4058.88H5690.31C5690.31 4038.1 5688.09 4021.64 5683.56 4009.61C5679.02 3997.59 5672.06 3989.04 5662.46 3983.87C5652.86 3978.81 5640.51 3976.17 5625.43 3976.17C5616.04 3976.17 5607.6 3977.75 5600 3980.81C5592.4 3983.87 5585.97 3988.09 5580.69 3993.37C5575.42 3998.64 5571.3 4005.08 5568.45 4012.67C5565.61 4020.27 5564.13 4028.5 5564.13 4037.47V4156.26C5564.13 4168.08 5566.45 4178.73 5571.2 4188.12C5575.84 4197.51 5582.8 4204.79 5591.98 4209.86C5601.16 4214.92 5612.24 4217.56 5625.32 4217.56C5642.83 4217.56 5656.76 4215.13 5666.99 4210.17C5677.23 4205.32 5684.51 4196.88 5689.04 4185.06C5693.58 4173.25 5695.79 4156.89 5695.79 4136.11L5810.9 4135.48C5810.9 4162.8 5806.47 4187.49 5797.71 4209.54C5788.95 4231.59 5776.61 4250.26 5760.68 4265.56C5744.75 4280.86 5726.18 4292.57 5704.97 4300.8C5683.77 4308.92 5660.66 4313.04 5635.76 4313.04H5618.67H5618.57Z" fill="white"/>
<path d="M6016.49 4313.02C5983.47 4313.02 5954.99 4307.11 5931.04 4295.29C5907.2 4283.48 5888.94 4266.81 5876.28 4245.39C5863.62 4223.98 5857.29 4199.18 5857.29 4171.01V3886.9H5986.43V4171.54C5986.43 4185.05 5991.17 4196.02 6000.77 4204.56C6010.38 4213.11 6022.09 4217.43 6036.01 4217.43C6049.94 4217.43 6061.54 4213.11 6070.93 4204.56C6080.32 4196.02 6085.07 4184.94 6085.07 4171.54V3886.9H6214.2V4171.01C6214.2 4199.18 6206.82 4223.98 6192.15 4245.39C6177.49 4266.81 6157.23 4283.48 6131.49 4295.29C6105.75 4307.11 6076.21 4313.02 6042.76 4313.02H6016.39H6016.49Z" fill="white"/>
<path d="M6280.99 4306.9V3886.9H6506.34C6527.13 3886.9 6546.33 3890.59 6563.84 3897.87C6581.35 3905.26 6595.39 3916.12 6605.83 3930.58C6616.28 3945.03 6621.45 3963.18 6621.45 3984.8C6621.45 4004.43 6618.17 4020.99 6611.63 4034.71C6605.09 4048.42 6596.55 4059.5 6585.89 4068.04C6575.24 4076.59 6563.63 4083.13 6550.97 4087.67V4090.09C6560.78 4092.52 6570.49 4096.21 6580.09 4101.07C6589.69 4105.92 6598.34 4112.36 6606.15 4120.37C6613.85 4128.29 6619.97 4137.68 6624.5 4148.54C6629.04 4159.41 6631.26 4171.86 6631.26 4186.21C6631.26 4210.26 6625.35 4231.47 6613.53 4249.61C6601.72 4267.76 6586.42 4281.9 6567.64 4291.81C6548.86 4301.84 6528.71 4306.79 6506.98 4306.79H6281.1L6280.99 4306.9ZM6399.15 4047.89H6469.52C6477.22 4047.89 6483.34 4046.1 6487.88 4042.41C6492.42 4038.72 6495.58 4033.86 6497.38 4027.74C6499.17 4021.62 6500.12 4015.29 6500.12 4008.75C6500.12 3996.51 6497.16 3988.07 6491.26 3983.33C6485.35 3978.68 6478.07 3976.26 6469.52 3976.26H6399.15V4047.89ZM6399.15 4212.58H6469.52C6477.22 4212.58 6483.98 4211 6489.67 4207.73C6495.37 4204.46 6499.8 4199.71 6502.86 4193.38C6505.92 4187.05 6507.5 4179.35 6507.5 4170.38C6507.5 4162.26 6505.71 4155.82 6502.33 4151.07C6498.85 4146.43 6494.42 4142.95 6488.83 4140.63C6483.34 4138.41 6477.33 4137.25 6470.79 4137.25H6399.15V4212.58Z" fill="white"/>
<path d="M6781.2 4306.9V4145.9L6642.25 3886.9H6786.79L6849.88 4024.68H6852.94L6917.19 3886.9H7048.85L6910.54 4145.9V4306.9H6781.41H6781.2Z" fill="white"/>
<path d="M7157.72 4306.9V3987.97H7052.43V3886.9H7392.78V3987.97H7286.85V4306.9H7157.72Z" fill="white"/>
<path d="M7436.89 4306.9V3886.9H7739.89V3984.91H7563.07V4046.1H7722.48V4139.79H7563.07V4208.99H7740V4306.9H7436.89Z" fill="white"/>
<defs>
<clipPath id="clip0_957_3404">
<rect width="5480.49" height="2275.21" fill="white" transform="translate(2259.28 3532.12)"/>
</clipPath>
</defs>
</svg>
