<?xml version="1.0" encoding="UTF-8"?>
<svg id="Layer_1" data-name="Layer 1" xmlns="http://www.w3.org/2000/svg" viewBox="0 0 631.13 293.23">
  <defs>
    <style>
      .cls-1 {
        fill: #1a1a1a;
      }

      .cls-1, .cls-2 {
        stroke-width: 0px;
      }

      .cls-2 {
        fill: #1f00ff;
      }
    </style>
  </defs>
  <g>
    <path class="cls-2" d="M91.72,222.51C42.19,222.51,1.9,180.12,1.9,128.02v-41.7h41.52v41.7c0,29.21,21.67,52.97,48.31,52.97s48.31-23.76,48.31-52.97v-41.57h41.52v41.57c0,52.1-40.3,94.49-89.83,94.49Z"/>
    <circle class="cls-2" cx="22.66" cy="41.55" r="22.66"/>
    <rect class="cls-2" x="117.57" y="20.91" width="86.67" height="41.29"/>
  </g>
  <g>
    <path class="cls-1" d="M343.47,163.49h-93.16c.64,8.35,3.33,14.72,8.06,19.14,4.73,4.42,10.55,6.62,17.45,6.62,10.27,0,17.41-4.33,21.42-13h43.81c-2.25,8.83-6.3,16.77-12.16,23.83-5.86,7.06-13.2,12.6-22.03,16.61-8.83,4.01-18.7,6.02-29.61,6.02-13.16,0-24.88-2.81-35.14-8.43-10.27-5.62-18.3-13.64-24.07-24.07-5.78-10.43-8.67-22.63-8.67-36.59s2.85-26.15,8.55-36.59c5.69-10.43,13.68-18.45,23.95-24.07,10.27-5.62,22.06-8.43,35.39-8.43s24.55,2.73,34.66,8.18c10.11,5.46,18.01,13.24,23.71,23.35,5.69,10.11,8.55,21.91,8.55,35.39,0,3.85-.24,7.86-.72,12.04ZM302.07,140.62c0-7.06-2.41-12.67-7.22-16.85-4.81-4.17-10.83-6.26-18.05-6.26s-12.72,2.01-17.45,6.02c-4.74,4.01-7.66,9.71-8.79,17.09h51.51Z"/>
    <path class="cls-1" d="M445.29,220.78l-25.76-37.31-21.67,37.31h-44.53l44.29-68.6-45.5-65.72h46.22l25.76,37.07,21.67-37.07h44.53l-45.01,67.64,46.22,66.68h-46.22Z"/>
    <path class="cls-1" d="M507.76,117.03c5.69-10.43,13.64-18.45,23.83-24.07,10.19-5.62,21.86-8.43,35.02-8.43,16.85,0,30.93,4.42,42.25,13.24,11.31,8.83,18.74,21.27,22.27,37.31h-43.81c-3.69-10.27-10.83-15.4-21.42-15.4-7.55,0-13.56,2.93-18.05,8.79-4.49,5.86-6.74,14.24-6.74,25.15s2.25,19.3,6.74,25.16c4.49,5.86,10.51,8.79,18.05,8.79,10.59,0,17.73-5.13,21.42-15.4h43.81c-3.53,15.73-10.99,28.08-22.39,37.07-11.4,8.99-25.44,13.48-42.13,13.48-13.16,0-24.84-2.81-35.02-8.43-10.19-5.62-18.14-13.64-23.83-24.07-5.7-10.43-8.55-22.63-8.55-36.59s2.85-26.15,8.55-36.59Z"/>
  </g>
  <g>
    <path class="cls-1" d="M393.96,16.75c-1.58-3.63-3.99-6.49-7.23-8.57-3.24-2.08-7.04-3.12-11.42-3.12-4.11,0-7.79.95-11.06,2.84-3.27,1.9-5.85,4.6-7.74,8.1-1.9,3.5-2.84,7.57-2.84,12.21s.95,8.72,2.84,12.25c1.9,3.53,4.48,6.24,7.74,8.14,3.26,1.9,6.95,2.84,11.06,2.84,3.84,0,7.31-.83,10.39-2.49,3.08-1.66,5.56-4.03,7.43-7.11,1.87-3.08,2.94-6.68,3.2-10.78h-23.23v-4.5h29.07v4.03c-.26,4.85-1.58,9.23-3.95,13.15-2.37,3.92-5.54,7.02-9.52,9.28-3.98,2.26-8.44,3.4-13.39,3.4s-9.74-1.2-13.9-3.59c-4.16-2.4-7.44-5.74-9.83-10.03-2.4-4.29-3.59-9.15-3.59-14.58s1.2-10.28,3.59-14.58c2.4-4.29,5.67-7.64,9.83-10.03,4.16-2.4,8.79-3.59,13.9-3.59,5.9,0,11.06,1.47,15.48,4.42,4.42,2.95,7.64,7.06,9.64,12.32h-6.48Z"/>
    <path class="cls-1" d="M441.68,55.85l-13.67-23.07h-10.19v23.07h-5.53V.63h16.59c6.16,0,10.83,1.47,14.02,4.42,3.19,2.95,4.78,6.82,4.78,11.61,0,4-1.15,7.41-3.44,10.23s-5.68,4.65-10.15,5.49l14.22,23.46h-6.64ZM417.82,28.28h11.14c4.32,0,7.57-1.05,9.76-3.16,2.19-2.11,3.28-4.92,3.28-8.45s-1.05-6.44-3.16-8.41c-2.11-1.97-5.43-2.96-9.95-2.96h-11.06v22.99Z"/>
    <path class="cls-1" d="M469.57,52.81c-4.16-2.4-7.44-5.74-9.83-10.03-2.4-4.29-3.59-9.15-3.59-14.58s1.2-10.28,3.59-14.58c2.4-4.29,5.67-7.64,9.83-10.03,4.16-2.4,8.79-3.59,13.9-3.59s9.82,1.2,13.98,3.59c4.16,2.4,7.43,5.74,9.8,10.03,2.37,4.29,3.55,9.15,3.55,14.58s-1.18,10.28-3.55,14.58c-2.37,4.29-5.64,7.64-9.8,10.03-4.16,2.4-8.82,3.59-13.98,3.59s-9.74-1.2-13.9-3.59ZM494.53,48.74c3.27-1.9,5.85-4.62,7.74-8.18,1.9-3.56,2.84-7.68,2.84-12.36s-.95-8.79-2.84-12.32c-1.9-3.53-4.48-6.24-7.74-8.14-3.27-1.9-6.95-2.84-11.06-2.84s-7.79.95-11.06,2.84c-3.27,1.9-5.85,4.61-7.74,8.14-1.9,3.53-2.84,7.64-2.84,12.32s.95,8.81,2.84,12.36c1.9,3.55,4.48,6.28,7.74,8.18,3.26,1.9,6.95,2.84,11.06,2.84s7.79-.95,11.06-2.84Z"/>
    <path class="cls-1" d="M526.21.63v34.76c0,5.48,1.3,9.53,3.91,12.17,2.61,2.63,6.17,3.95,10.7,3.95s8.07-1.3,10.63-3.91c2.55-2.61,3.83-6.67,3.83-12.21V.63h5.53v34.68c0,7-1.86,12.27-5.57,15.8-3.71,3.53-8.55,5.29-14.5,5.29s-10.78-1.76-14.5-5.29c-3.71-3.53-5.57-8.79-5.57-15.8V.63h5.53Z"/>
    <path class="cls-1" d="M603.79,27.97c-3.11,2.9-7.77,4.34-13.98,4.34h-11.14v23.54h-5.53V.63h16.67c6.16,0,10.81,1.45,13.94,4.34,3.13,2.9,4.7,6.74,4.7,11.53s-1.55,8.56-4.66,11.46ZM602.76,16.51c0-3.69-1.03-6.48-3.08-8.37-2.05-1.9-5.35-2.84-9.88-2.84h-11.14v22.28h11.14c8.64,0,12.96-3.69,12.96-11.06Z"/>
  </g>
</svg>