<?xml version="1.0" encoding="UTF-8"?>
<svg id="Layer_1" data-name="Layer 1" xmlns="http://www.w3.org/2000/svg" viewBox="0 0 4535.43 2834.65">
  <defs>
    <style>
      .cls-1 {
        fill: none;
      }

      .cls-1, .cls-2, .cls-3 {
        stroke-width: 0px;
      }

      .cls-2 {
        fill: #fff;
      }

      .cls-3 {
        fill: #e21d3c;
      }
    </style>
  </defs>
  <path class="cls-3" d="M2725.9,2221.68l-154.86,96.78-167.41,135.81s-109.51,39.09-141.62,45.44c-32.12,6.35-90.03,19.54-90.03,19.54,0,0,0-71.33-45.26-97.22-45.26-25.89-103.17-32.24-103.17-32.24,0,0-32.12-58.15-57.92-84.04-25.79-25.89-843.89-569.15-889.15-595.05-9.74-5.86-15.09-11.23-18.01-16.61-.31-12.45-.62-24.84-.93-36.73-1.19-45.91-2.18-84.16-1.02-88.83,2.91-12.22,125.56-84.03,146.49-96.24,8.8-5.14,20.78-4.91,31.71-4.72,15.07.28,28.16.52,28.16-13.36,0-16.03,22.92-16.07,46.98-16.1,11.87-.02,24-.03,33.81-1.97,29.68-6.35,47.7-27.36,47.7-54.24,0-21.11,25.84-22.01,49.9-22.85,6.56-.23,12.98-.46,18.71-1.08,14.41-1.59,20.22-9.26,25.33-16,4.37-5.78,8.21-10.87,16.52-10.87,12.42,0,12.11-13.02,11.68-30.87-.19-8.03-.41-17.05.49-26.29q2.45-24.9,18.36-24.22c3.12.14,6.85.29,11.33.29,27.26,0,54.01-15.14,54.01-33.21,0-14.4,73.83-9.59,112.96-7.03,9.98.66,17.71,1.16,21.36,1.16,18.01,0,23.85-21,20.93-36.15-3.4-15.14-18.01-60.09-36.01-63.02-12.57-2.05-10.44-24.57-8-50.26,1.05-11.13,2.16-22.85,2.16-33.76l.49,2.44c0-36.15-5.84-69.37-26.77-96.24-4.38-5.86-9.74-16.12-15.09-28.34,12.65-.49,24.82-4.4,34.56-15.63,35.03-39.57,101.71-74.74,143.56-74.74,18.46,0,34.55-14.25,52.82-30.44,23.18-20.52,49.85-44.15,89.29-45.78,21.96-.91,61.18-5.47,105.55-10.61,98.28-11.4,221.77-25.73,238.53-9.91,15.58,14.7,51.31.56,82.8-11.9,17.69-7,34.03-13.47,44.7-14,12.27-.4,27.62-2.98,42.53-5.48,21.18-3.55,41.5-6.95,50.92-3.8.46.15.96.31,1.52.49,12.54,4.04,50.15,16.13,84.62,16.13-8.27,54.23-15.57,121.65-.96,143.62,21.41,32.25-5.84,86.96-27.26,97.72-9.87,4.83-18.65,17.41-27.28,29.78-10.52,15.07-20.81,29.82-32.59,29.82-14.32,0-9.48,36.52,6.67,65.52-180.44,112.53-300.51,312.8-300.51,541.12,0,292.88,197.58,539.6,466.71,614.18h0Z"/>
  <path class="cls-3" d="M2965.25,2072.72h-.98l-150.4,93.98c-272.66-40.08-482.65-275.57-482.65-559.2,0-209.99,115.11-393.58,285.53-491.03,12.19,14.36,12.19,30.66,12.19,41.7,0,8.49,15.15,16.99,31.82,26.34,14.96,8.4,31.16,17.49,38.74,27.87,16.06,21.99,43.32,125.08,43.32,163.18,0,10.27,3.4,18.08,8.27,24.43-10.7,7.33-19.47,13.68-20.44,19.55-1.66,7.8,6.5,21.32,17.06,38.84,7.95,13.2,17.27,28.68,24.8,45.66,9.21,20.79,3.77,38.21-1.28,54.39-4.56,14.61-8.8,28.21-1.64,42.36,14.6,29.8,6.83,46.41-6.81,62.52-9.45,11.21-5.78,27.35-2.64,41.09,1.38,6.04,2.64,11.6,2.64,16.08,0,7.18,4.57,16.13,8.58,24.01,4.18,8.2,7.78,15.26,5.06,18-1.04,1.04-3.16,2.86-5.9,5.22-11.5,9.87-34.01,29.17-34.01,40.22,0,7.95,6.72,15.72,16.36,26.88,6.96,8.05,15.45,17.87,24.02,30.77,13.63,20.52,12.12,34.73,10.61,49.01-.76,7.15-1.53,14.33-.38,22.32,3.4,23.45,36.99,37.13,64.23,37.13,14.09,0,25.32,5.47,36.16,10.77,10.15,4.96,19.98,9.75,31.5,9.75,20.93,0,34.07,34.68,46.24,78.17h0Z"/>
  <rect class="cls-3" x="2940.04" y="682.06" width="21.61" height="158.5"/>
  <rect class="cls-3" x="2871.59" y="750.5" width="158.5" height="21.61"/>
  <path class="cls-3" d="M1203.75,1344.89c-14.31,0-28.21-4.01-40.33-11.66-12.7-7.97-22.66-19.44-28.79-33.16-6.13-13.72-8.03-28.8-5.48-43.61,2.54-14.79,9.32-28.37,19.63-39.27,10.3-10.9,23.48-18.44,38.1-21.79.04-.01.09-.02.14-.03,19.64-4.31,39.83-.79,56.85,9.93,17.02,10.7,28.94,27.38,33.56,46.96,0,.03.01.06.02.09,3.35,14.65,2.3,29.81-3.05,43.85-5.35,14.04-14.66,26.06-26.91,34.75-12.25,8.69-26.67,13.5-41.68,13.91-.68.02-1.37.03-2.05.03ZM1193.26,1223.49c-9.04,2.09-17.18,6.75-23.54,13.49-6.39,6.76-10.6,15.17-12.17,24.35-1.57,9.17-.4,18.5,3.39,26.98,3.79,8.49,9.96,15.58,17.83,20.52,7.88,4.98,16.95,7.46,26.25,7.22,9.28-.25,18.2-3.23,25.79-8.61,7.58-5.38,13.34-12.82,16.65-21.51,3.31-8.68,3.97-18.05,1.9-27.11-2.88-12.15-10.29-22.5-20.85-29.15-10.56-6.65-23.07-8.84-35.25-6.19Z"/>
  <path class="cls-1" d="M1614.37,607.22l25.23-32.11c-11.54,10.56-20.22,21.47-25.23,32.11ZM1854.94,416.78l-8.64-2.38-164.63-45.29-205.41,272.8,147.73,40.54,2.84.78-15.55-45.16,2.27-.79,4.63-1.6c-.26-.77-.49-1.55-.67-2.35-3.46-14.7,6.25-33.75,27.02-52.78,23.28-21.33,57.57-40.49,96.53-53.94,38.99-13.47,77.78-19.57,109.24-17.2,28.08,2.12,47.48,11.1,53.83,24.77.35.74.66,1.5.93,2.27l4.63-1.6,2.34-.81h0s12.14,35.44,12.14,35.44l1.83-2.42,81.54-108.3-152.6-41.98ZM1925.03,564.27l-6.42-18.56-4.13-12.07v-3.04l-1.01.36c-3.78-8.87-11.11-16.07-21.83-21.44-6.4-3.21-13.92-5.68-22.42-7.41-.81-.17-1.63-.33-2.46-.49-1.7-.31-3.44-.6-5.21-.86-.61-.09-1.22-.17-1.84-.26-.88-.12-1.77-.22-2.67-.32-.97-.11-1.96-.21-2.95-.31-.5-.05-1-.09-1.5-.13-.51-.04-1.01-.08-1.52-.12-.15-.01-.31-.02-.46-.03-19.36-1.45-41.91.17-66.14,5.02-2.66.53-5.33,1.1-8.02,1.71-2.11.48-4.23.98-6.36,1.5-1.13.27-2.27.56-3.42.86-.99.25-1.98.51-2.97.78-.89.23-1.79.47-2.68.72-1.09.3-2.18.6-3.28.91-3.36.96-6.74,1.97-10.14,3.04-2.12.67-4.26,1.37-6.39,2.08-1.1.36-2.21.74-3.31,1.12-1.26.43-2.51.87-3.75,1.32-.01.01-.02.01-.04.02-1.87.66-3.72,1.34-5.56,2.03-1.84.69-3.67,1.39-5.49,2.11-.01.01-.02.01-.04.02-2.74,1.07-5.45,2.17-8.12,3.31-.9.38-1.78.76-2.67,1.14-11.83,5.1-23.05,10.72-33.47,16.72-1.04.6-2.08,1.2-3.1,1.81-14.37,8.52-27.14,17.79-37.74,27.51-.43.39-.85.78-1.27,1.18-.67.63-1.34,1.26-1.99,1.9-.71.68-1.41,1.37-2.1,2.07-.34.34-.68.69-1.02,1.03-.34.35-.67.69-1,1.03-.34.35-.67.69-.98,1.04-.32.34-.64.69-.96,1.03-.96,1.04-1.88,2.07-2.76,3.1-1.2,1.38-2.33,2.75-3.39,4.12-.56.69-1.08,1.38-1.58,2.06-.78,1.03-1.52,2.06-2.21,3.08-.49.68-.94,1.37-1.37,2.05-.5.77-.99,1.55-1.45,2.32-.43.7-.83,1.4-1.23,2.11-.04.06-.08.13-.12.2-.41.74-.8,1.47-1.18,2.2l-.03.06s-.02.01-.02.02c-.14.27-.28.55-.41.82-.28.54-.54,1.09-.79,1.63-.18.39-.36.78-.53,1.17-.61,1.36-1.15,2.7-1.64,4.05-.25.71-.49,1.41-.7,2.11-.1.3-.2.6-.28.9-.15.5-.29,1-.42,1.5l-.03.12c-.08.31-.16.62-.23.93-.23.93-.42,1.86-.58,2.77-.11.64-.2,1.28-.29,1.91-.06.46-.11.92-.15,1.38-.01.12-.03.23-.04.35-.02.15-.03.31-.04.46-.02.27-.04.53-.06.79-.01.26-.03.52-.04.79,0,.11,0,.23-.01.34-.04,1.6,0,3.18.15,4.74.19,1.99.54,3.94,1.05,5.86l-.05.02.24.69c.16.55.33,1.1.52,1.65l9.75,28.19,4.32,12.55-142.61-39.13,202.24-268.6,165.29,45.47c.53.46,1.16.82,1.88,1.02.45.13.9.19,1.35.19.3,0,.59-.03.88-.08l151.39,41.65-78.39,104.11ZM1639.6,575.11c23.08-21.14,57.93-41.25,99.1-55.47,41.16-14.22,80.98-19.93,112.18-17.58,15.59,1.18,29.15,4.38,39.66,9.65,10.54,5.27,18.15,12.7,21.49,22.33M1614.37,607.22c5.01-10.64,13.69-21.55,25.23-32.11M1639.6,575.11l-25.23,32.11M1611.28,638.07l.77-7.71,1.38-13.77.94-9.37c-5.02,10.66-6.42,21.21-3.09,30.85Z"/>
  <path class="cls-3" d="M1856,414.53l-9.44-2.6-165.84-45.62-208.58,277.01,152.82,41.94,5.7,1.56-6.3-18.3-9.97-28.93,4.6-1.59-.8-2.3s0-.01-.01-.02c-.26-.77-.49-1.55-.67-2.35l-3.42,1.18,2.64-26.34,24.66-31.37c2.04-1.88,4.18-3.74,6.42-5.59.49-.42.99-.83,1.49-1.22.97-.8,1.96-1.59,2.96-2.37.71-.56,1.42-1.12,2.15-1.66.76-.59,1.52-1.17,2.3-1.73,1.71-1.27,3.47-2.53,5.26-3.79,1.13-.79,2.28-1.58,3.44-2.35,12.2-8.23,25.94-15.9,40.78-22.74,1.51-.71,3.02-1.4,4.55-2.06,1.53-.69,3.08-1.36,4.63-2.02,1.43-.62,2.88-1.23,4.33-1.82.91-.38,1.83-.75,2.75-1.12,2.22-.9,4.46-1.77,6.71-2.62,1.24-.47,2.5-.93,3.75-1.39,1.09-.4,2.18-.8,3.28-1.2,1.1-.39,2.21-.78,3.31-1.16,39.6-13.68,79.09-19.88,111.2-17.46,15.62,1.18,28.66,4.34,38.75,9.4,9.51,4.76,16.02,11.03,19.37,18.66h-.04s-4.65,1.62-4.65,1.62c.35.74.66,1.5.93,2.27h0s.8,2.32.8,2.32l4.63-1.6h.02s2.66,7.76,2.66,7.76l10.18,29.71.06-.09,3.55-4.7,84.7-112.5-155.66-42.82ZM1924.99,564.32l-6.38-18.61-4.13-12.07v-3.04l-1.01.36c-3.78-8.87-11.11-16.07-21.83-21.44-6.4-3.21-13.92-5.68-22.42-7.41-.81-.17-1.63-.33-2.46-.49-1.7-.31-3.44-.6-5.21-.86-.61-.09-1.22-.17-1.84-.26-.88-.12-1.77-.22-2.67-.32-.97-.11-1.96-.21-2.95-.31-.5-.05-1-.09-1.5-.13-.51-.04-1.01-.08-1.52-.12-19.99-1.51-42.75.25-66.6,4.99-2.66.53-5.33,1.1-8.02,1.71-2.11.48-4.23.98-6.36,1.5-1.13.27-2.27.56-3.42.86-.99.25-1.98.51-2.97.78-.89.23-1.79.47-2.68.72-1.09.3-2.18.6-3.28.91-3.36.96-6.74,1.97-10.14,3.04-2.12.67-4.26,1.37-6.39,2.08-1.1.36-2.21.74-3.31,1.12-1.26.43-2.51.87-3.75,1.32-.01.01-.02.01-.04.02-1.87.66-3.72,1.34-5.56,2.03-1.84.69-3.67,1.39-5.49,2.11-.01.01-.02.01-.04.02-2.74,1.07-5.45,2.17-8.12,3.31-.9.38-1.78.76-2.67,1.14-11.83,5.1-23.05,10.72-33.47,16.72-1.04.6-2.08,1.2-3.1,1.81-14.37,8.52-27.14,17.79-37.74,27.51-.43.39-.85.78-1.27,1.18-.67.63-1.34,1.26-1.99,1.9-.71.68-1.41,1.37-2.1,2.07-.34.34-.68.69-1.02,1.03-.34.35-.67.69-1,1.03-.34.35-.67.69-.98,1.04-.32.34-.64.69-.96,1.03-.96,1.04-1.88,2.07-2.76,3.1-1.18,1.37-2.31,2.75-3.39,4.12-.54.69-1.06,1.37-1.58,2.06-.76,1.03-1.5,2.05-2.21,3.08-.47.68-.92,1.37-1.37,2.05-.5.77-.99,1.55-1.45,2.32-.43.7-.83,1.4-1.23,2.11-.04.06-.08.13-.12.2-.41.74-.8,1.47-1.18,2.2l-.03.06c-.15.28-.29.56-.43.84-.28.54-.54,1.09-.79,1.63-.18.39-.36.78-.53,1.17-.61,1.36-1.15,2.7-1.64,4.05-.25.71-.49,1.41-.7,2.11-.1.3-.2.6-.28.9-.15.5-.29,1-.42,1.5l-.03.12c-.08.31-.16.62-.23.93-.23.93-.42,1.86-.58,2.77-.11.64-.2,1.28-.29,1.91-.06.46-.11.92-.15,1.38-.01.12-.03.23-.04.35-.02.15-.03.31-.04.46-.02.27-.04.53-.06.79-.01.26-.03.52-.04.79,0,.11,0,.23-.01.34-.04,1.6,0,3.18.15,4.74.2,1.99.55,3.94,1.07,5.85h-.02s-.05.03-.05.03l.24.69.5,1.46s.03.11.05.16l9.72,28.22,4.32,12.55-142.61-39.13,202.24-268.6,165.29,45.47,4.11,1.13,151.39,41.65-78.39,104.11-.04.05Z"/>
  <path class="cls-3" d="M2003.42,460.16l-78.39,104.11-6.42-18.56-4.13-12.07v-3.04l-1.01.36c-3.78-8.87-11.11-16.07-21.83-21.44-7.02-3.52-15.36-6.16-24.88-7.9-1.7-.31-3.44-.6-5.21-.86-.61-.09-1.22-.17-1.84-.26-.88-.12-1.77-.22-2.67-.32-.97-.11-1.96-.21-2.95-.31-.5-.05-1-.09-1.5-.13-19.79-1.72-43.06-.15-68.12,4.87-2.66.53-5.33,1.1-8.02,1.71-2.11.48-4.23.98-6.36,1.5-1.13.27-2.27.56-3.42.86-.99.25-1.98.51-2.97.78-.89.23-1.79.47-2.68.72-1.09.3-2.18.6-3.28.91-3.36.96-6.74,1.97-10.14,3.04-2.12.67-4.26,1.37-6.39,2.08-1.1.36-2.21.74-3.31,1.12-1.26.43-2.51.87-3.75,1.32-.01.01-.02.01-.04.02-1.87.66-3.72,1.34-5.56,2.03-1.85.69-3.67,1.39-5.49,2.11-.01.01-.02.01-.04.02-2.74,1.07-5.45,2.17-8.12,3.31-.9.38-1.78.76-2.67,1.14-11.83,5.1-23.05,10.72-33.47,16.72-1.04.6-2.08,1.2-3.1,1.81-14.37,8.52-27.14,17.79-37.74,27.51-.43.39-.85.78-1.27,1.18-.67.63-1.34,1.26-1.99,1.9-.71.68-1.41,1.37-2.1,2.07-.34.34-.68.69-1.02,1.03-.34.35-.67.69-1,1.03-.34.35-.67.69-.98,1.04-.32.34-.64.69-.96,1.03-.96,1.04-1.88,2.07-2.76,3.1-1.2,1.38-2.33,2.75-3.39,4.12-.56.69-1.08,1.38-1.58,2.06-.78,1.03-1.52,2.06-2.21,3.08-.49.68-.94,1.37-1.37,2.05-.5.77-.99,1.55-1.45,2.32-.43.7-.83,1.4-1.23,2.11-.04.06-.08.13-.12.2-.41.74-.8,1.47-1.18,2.2l-.03.06s-.02.01-.02.02c-.14.27-.28.55-.41.82-.28.54-.54,1.09-.79,1.63-.19.39-.36.78-.53,1.17-.61,1.36-1.15,2.7-1.64,4.05-.25.7-.49,1.41-.7,2.11-.1.3-.2.6-.28.9-.15.51-.29,1-.42,1.5l-.03.12c-.09.31-.16.62-.23.93-.23.93-.42,1.86-.58,2.77-.3,1.65-.49,3.28-.58,4.89-.01.26-.03.52-.04.79,0,.11,0,.23-.01.34-.04,1.6,0,3.18.15,4.74.19,1.99.54,3.94,1.05,5.86l-.05.02.24.69c.16.55.33,1.1.52,1.65l9.75,28.19,4.32,12.55-142.61-39.13,202.24-268.6,165.29,45.47c.53.46,1.16.82,1.88,1.02.45.13.9.19,1.35.19.3,0,.59-.03.88-.08l151.39,41.65Z"/>
  <path class="cls-3" d="M1697.36,665.22c48.53-33.13,105.04-52.7,163.66-56.68-48.51,33.18-105.03,52.75-163.66,56.68h0Z"/>
  <path class="cls-3" d="M1688.56,668.26l7.42-5.07c48.85-33.35,105.86-53.09,164.88-57.1l8.96-.61-7.42,5.07c-48.83,33.4-105.85,53.14-164.88,57.1l-8.96.6ZM1851.73,611.77c-51.62,5.01-101.41,22.25-145.07,50.24,51.63-4.97,101.42-22.22,145.07-50.24Z"/>
  <path class="cls-3" d="M3461.66,1607.5c0,311.67-253.55,565.22-565.21,565.22s-565.22-253.55-565.22-565.22,253.56-565.21,565.22-565.21,565.21,253.55,565.21,565.21h0Z"/>
  <path class="cls-3" d="M3461.66,1607.5c0,311.67-253.55,565.22-565.21,565.22s-565.22-253.55-565.22-565.22,253.56-565.21,565.22-565.21,565.21,253.55,565.21,565.21h0Z"/>
  <polygon class="cls-2" points="2543.81 1610.01 2543.81 1566.94 2567.68 1566.94 2567.68 1453.47 2543.81 1453.47 2543.81 1410.4 2629.26 1410.4 2629.05 1566.94 2652.62 1566.94 2652.62 1610.01 2543.81 1610.01"/>
  <polygon class="cls-2" points="2679.69 1610.01 2679.69 1410.4 2730.88 1410.4 2782.38 1484.61 2791.4 1501.76 2792.86 1500.91 2792.86 1410.4 2849.02 1410.4 2849.02 1610.01 2796.62 1610.01 2743.36 1533.2 2737.25 1520.96 2735.8 1521.56 2735.8 1610.01 2679.64 1610.01 2679.69 1610.01"/>
  <path class="cls-2" d="M2966,1612.93c-12.79,0-24.72-1.96-35.8-5.82-11.08-3.85-20.76-9.58-29.08-17.05-8.32-7.47-14.84-16.64-19.5-27.48-4.66-10.88-6.97-23.16-6.97-36.95v-30.84c0-13.19,2.41-25.12,7.28-35.8,4.86-10.68,11.53-19.86,20.05-27.48,8.53-7.67,18.31-13.59,29.24-17.75,10.93-4.16,22.46-6.27,34.5-6.27h8.18c11.83,0,22.86,1.76,33.04,5.22,10.18,3.51,19.06,8.78,26.63,15.84,7.57,7.07,13.44,15.89,17.59,26.48,4.16,10.58,6.27,22.96,6.27,37.1h-57.31c0-9.88-1.06-17.7-3.21-23.42-2.16-5.72-5.47-9.78-10.03-12.23-4.56-2.41-10.43-3.66-17.6-3.66-4.46,0-8.47.75-12.08,2.2-3.61,1.45-6.67,3.46-9.18,5.96-2.51,2.51-4.46,5.56-5.81,9.18-1.35,3.61-2.05,7.52-2.05,11.78v56.46c0,5.61,1.1,10.68,3.36,15.14,2.21,4.46,5.52,7.92,9.88,10.32,4.37,2.41,9.63,3.66,15.84,3.66,8.33,0,14.94-1.15,19.81-3.51,4.87-2.31,8.33-6.32,10.48-11.93,2.15-5.62,3.21-13.39,3.21-23.27l54.7-.3c0,12.98-2.1,24.72-6.27,35.19-4.16,10.48-10.02,19.36-17.59,26.63-7.57,7.27-16.4,12.84-26.48,16.74-10.08,3.86-21.06,5.82-32.9,5.82h-8.17Z"/>
  <path class="cls-2" d="M3155.14,1612.92c-15.7,0-29.24-2.81-40.62-8.42-11.33-5.62-20.01-13.54-26.02-23.72-6.02-10.18-9.02-21.97-9.02-35.35v-135.03h61.37v135.28c0,6.42,2.26,11.64,6.82,15.69,4.56,4.06,10.13,6.12,16.74,6.12s12.13-2.05,16.6-6.12c4.46-4.06,6.72-9.32,6.72-15.69v-135.28h61.38v135.03c0,13.39-3.51,25.17-10.48,35.35-6.97,10.18-16.6,18.1-28.83,23.72-12.23,5.61-26.28,8.42-42.17,8.42h-12.54.05Z"/>
  <path class="cls-2" d="M2543.81,1847.64v-199.62h107.11c9.88,0,19.01,1.76,27.33,5.22,8.33,3.51,14.99,8.67,19.96,15.55,4.96,6.87,7.42,15.49,7.42,25.77,0,9.32-1.55,17.2-4.66,23.72-3.11,6.52-7.17,11.78-12.23,15.84-5.06,4.06-10.58,7.17-16.6,9.33v1.15c4.66,1.15,9.28,2.9,13.84,5.21,4.56,2.31,8.67,5.37,12.38,9.18,3.66,3.76,6.57,8.22,8.73,13.39,2.15,5.17,3.21,11.08,3.21,17.9,0,11.43-2.81,21.51-8.43,30.14-5.61,8.62-12.88,15.34-21.81,20.06-8.93,4.76-18.5,7.12-28.83,7.12h-107.36l-.05.05ZM2599.97,1724.59h33.44c3.66,0,6.57-.86,8.73-2.61,2.16-1.76,3.66-4.06,4.52-6.97.85-2.9,1.3-5.92,1.3-9.02,0-5.82-1.41-9.83-4.22-12.09-2.81-2.2-6.27-3.36-10.33-3.36h-33.44v34.05ZM2599.97,1802.86h33.44c3.66,0,6.87-.76,9.58-2.3,2.7-1.56,4.81-3.81,6.27-6.82,1.45-3.01,2.21-6.67,2.21-10.93,0-3.86-.85-6.92-2.46-9.18-1.66-2.2-3.76-3.86-6.42-4.96-2.61-1.05-5.47-1.6-8.57-1.6h-34.05v35.8Z"/>
  <polygon class="cls-2" points="2781.53 1847.64 2781.53 1771.12 2715.49 1648.02 2784.19 1648.02 2814.17 1713.51 2815.63 1713.51 2846.16 1648.02 2908.74 1648.02 2843 1771.12 2843 1847.64 2781.63 1847.64 2781.53 1847.64"/>
  <polygon class="cls-2" points="2960.5 1847.64 2960.5 1696.06 2910.45 1696.06 2910.45 1648.02 3072.21 1648.02 3072.21 1696.06 3021.87 1696.06 3021.87 1847.64 2960.5 1847.64"/>
  <polygon class="cls-2" points="3093.16 1847.64 3093.16 1648.02 3237.17 1648.02 3237.17 1694.6 3153.13 1694.6 3153.13 1723.68 3228.9 1723.68 3228.9 1768.21 3153.13 1768.21 3153.13 1801.1 3237.22 1801.1 3237.22 1847.64 3093.16 1847.64"/>
  <polygon class="cls-3" points="3407.26 983.18 3220.02 1032.46 3276.35 1075.97 3153.44 1235.41 3228.03 1292.73 3350.94 1133.29 3407.28 1176.8 3407.26 983.18"/>
  <path class="cls-3" d="M1878.62,255.65c-3.98,13.62.24,26.93,9.42,29.68,9.31,2.65,19.94-6.31,23.95-20.19,3.97-13.62-7.49-36.59-7.49-36.59,0,0-22.03,13.32-25.88,27.09h0Z"/>
  <path class="cls-3" d="M1891.38,290.69c-1.56,0-3.13-.21-4.68-.65-12-3.6-17.59-19.28-12.79-35.73,4.27-15.2,25.63-28.47,28.05-29.94,1.17-.71,2.58-.89,3.9-.51,1.31.38,2.41,1.29,3.02,2.52,1.26,2.53,12.19,25.12,7.81,40.14-4.18,14.47-14.72,24.18-25.31,24.18ZM1902.39,235.83c-6.9,4.93-16.91,13.44-19.05,21.13,0,.02-.01.04-.02.06-3.12,10.67-.25,21.7,6.13,23.61,6.47,1.83,14.67-5.87,17.84-16.85,2.22-7.61-1.7-20.11-4.9-27.95Z"/>
  <path class="cls-3" d="M1893.19,285.65c-.02.19-.07.37-.12.56-.45,1.56-.84,3.04-1.18,4.46-3,12.44-2.23,19.92-1.4,27.79.96,9.3,1.97,18.93-2.91,35.95-4.89,17.03-10.91,24.64-16.73,32-5.41,6.84-10.52,13.3-14.85,28.12-.05.17-.1.34-.15.51-.19.66-.5,1.24-.91,1.74-.73.91-1.77,1.52-2.91,1.73-.29.05-.58.08-.88.08-.45,0-.9-.06-1.35-.19-.72-.2-1.35-.56-1.88-1.02-.87-.77-1.45-1.83-1.62-2.98-.1-.67-.06-1.37.14-2.06.04-.14.08-.27.12-.41,4.86-16.75,10.83-24.3,16.61-31.6,5.47-6.91,10.64-13.45,14.99-28.62,4.36-15.2,3.5-23.48,2.59-32.24-.88-8.44-1.79-17.14,1.69-31.38.36-1.47.76-2.99,1.22-4.58.05-.16.1-.31.16-.46.69-1.76,2.33-2.92,4.14-3.06h.01c.58-.05,1.17,0,1.75.17.56.16,1.07.41,1.51.73,1.48,1.06,2.28,2.9,1.96,4.76Z"/>
  <path class="cls-3" d="M1873.61,604.39c-.7-2.05-2.68-3.39-4.81-3.31-9.28.35-18.51,1.07-27.66,2.18l-.86.11c-49.06,6.04-95.92,22.91-137.66,49.59-4.7,3-9.34,6.13-13.91,9.38-.48.35-.97.7-1.45,1.04-.35.26-.71.51-1.06.77-.09.07-.18.14-.26.21-1.55,1.3-2.15,3.44-1.48,5.37.17.49.42.95.73,1.35.9,1.2,2.33,1.93,3.89,1.93h.2c.48-.02.95-.04,1.43-.06,64.9-2.97,127.06-24.44,179.95-62.16.4-.28.79-.56,1.18-.84,1.33-.96,2.07-2.49,2.03-4.07-.01-.5-.09-1-.26-1.49ZM1712.07,661.43c-1.8.21-3.6.4-5.41.57,5.25-3.39,10.58-6.61,15.99-9.67,0,0,.02-.01.03-.01,28.07-15.91,58.23-27.43,89.63-34.27.26-.06.52-.11.78-.17,11.46-2.47,23.08-4.31,34.83-5.52,1.14-.12,2.27-.23,3.41-.34h.04c-42.13,26.98-89.64,43.82-139.3,49.41Z"/>
  <path class="cls-2" d="M1931.6,613.21c-1.75-1.09-3.61-2.12-5.59-3.07-13.7-6.61-31.59-9.23-50.82-9.23-11.09,0-22.62.87-34.05,2.35l-.86.11c-49.06,6.04-95.92,22.91-137.66,49.59-4.74,2.99-9.4,6.12-13.91,9.38-.49.34-.97.69-1.45,1.04-.35.26-.71.51-1.06.77-.09.07-.18.14-.26.21-1.2.89-2.38,1.78-3.55,2.69-19.76,15.3-32.43,30.58-37.71,45.24l-25.69-74.29-.8-2.3s0-.01-.01-.02c-.26-.77-.49-1.55-.67-2.35-3.46-14.7,6.25-33.75,27.02-52.78,23.28-21.33,57.57-40.49,96.53-53.94,38.99-13.47,77.78-19.57,109.24-17.2,28.08,2.12,47.48,11.1,53.83,24.77.35.74.66,1.5.93,2.27h0s.8,2.32.8,2.32l25.74,74.44Z"/>
  <path class="cls-2" d="M1938.63,618.54l-15.22-43.99-10.24-29.62-2.68-7.76-.8-2.31h0c-.27-.79-.57-1.55-.91-2.29-14.73-33.39-89.26-38.24-169.31-10.59-2.2.76-4.39,1.54-6.56,2.34-1.25.46-2.51.92-3.75,1.39-2.26.86-4.5,1.73-6.71,2.62-25.46,10.24-47.87,22.67-65.74,35.9-.78.58-1.55,1.16-2.3,1.73-.73.55-1.44,1.11-2.15,1.66-1,.78-1.99,1.57-2.96,2.37-.5.4-1,.81-1.49,1.22-2.24,1.85-4.38,3.71-6.42,5.59-14.58,13.31-24.37,27.01-27.96,39.79-1.34,4.74-1.83,9.35-1.38,13.77.23,2.37.73,4.68,1.5,6.92t.01.02l10.8,31.22,18.07,52.27,5.73,16.58.53,1.52,4.59-1.59h.04s286.83-99.23,286.83-99.23h.04s4.59-1.6,4.59-1.6h.04s-6.19-17.93-6.19-17.93ZM1618.99,638l-.8-2.3s0-.01-.01-.02c-.26-.77-.49-1.55-.67-2.35-3.46-14.7,6.25-33.75,27.02-52.78,23.28-21.33,57.57-40.49,96.53-53.94,38.99-13.47,77.78-19.57,109.24-17.2,28.08,2.12,47.48,11.1,53.83,24.77.35.74.66,1.5.93,2.27h0s.8,2.32.8,2.32l25.74,74.44c-1.75-1.09-3.61-2.12-5.59-3.07-13.7-6.61-31.59-9.23-50.82-9.23-11.09,0-22.62.87-34.05,2.35l-.86.11c-49.06,6.04-95.92,22.91-137.66,49.59-4.74,2.99-9.4,6.12-13.91,9.38-.48.35-.97.7-1.45,1.04-.35.26-.71.51-1.06.77-.09.07-.18.14-.26.21-1.2.89-2.38,1.78-3.55,2.69-19.76,15.3-32.43,30.58-37.71,45.24l-25.69-74.29Z"/>
  <path class="cls-3" d="M1946.42,641.09c-.14.05-.28.09-.42.12-2.44.62-4.98-.73-5.81-3.15l-5.78-16.71-2.81-8.14-25.74-74.44-.8-2.31h0c-.27-.78-.58-1.54-.93-2.28-6.35-13.67-25.75-22.65-53.83-24.77-31.46-2.37-70.25,3.73-109.24,17.2-38.96,13.45-73.25,32.61-96.53,53.94-20.77,19.03-30.48,38.08-27.02,52.78.18.8.41,1.58.67,2.35t.01.02l.8,2.3,25.69,74.29,2.79,8.07,5.41,15.64.44,1.29c.06.17.11.34.14.51.53,2.29-.65,4.66-2.83,5.58-.11.06-.22.1-.34.14-.53.18-1.07.27-1.6.27-2.03,0-3.93-1.27-4.63-3.3l-.54-1.55s-.01-.04-.02-.06l-18.54-53.62-.97-2.81-5.31-15.36-9.75-28.19c-.19-.55-.36-1.1-.52-1.65-.07-.24-.14-.48-.19-.71-.51-1.92-.86-3.87-1.05-5.86-.15-1.56-.19-3.14-.15-4.74.01-.11.01-.23.01-.34.01-.27.03-.53.04-.79.02-.26.04-.52.06-.79.01-.15.02-.31.04-.46.11-1.2.27-2.41.48-3.64.16-.91.35-1.84.58-2.77.07-.31.15-.62.23-.93l.03-.12c.13-.5.27-1,.42-1.5.08-.3.18-.6.28-.9.21-.7.45-1.4.7-2.11.49-1.35,1.03-2.69,1.64-4.05.17-.39.35-.78.53-1.17.25-.54.51-1.09.79-1.63.13-.27.27-.55.41-.82,0-.01.01-.01.02-.02l.03-.06c.38-.73.77-1.46,1.18-2.2.04-.07.08-.14.12-.2.4-.71.8-1.41,1.23-2.11.46-.77.95-1.55,1.45-2.32.43-.68.88-1.37,1.37-2.05.69-1.02,1.43-2.05,2.21-3.08.5-.68,1.02-1.37,1.58-2.06,1.06-1.37,2.19-2.74,3.39-4.12.88-1.03,1.8-2.06,2.76-3.1.32-.34.64-.69.96-1.03.31-.35.64-.69.98-1.04.33-.34.66-.68,1-1.03.34-.34.68-.69,1.02-1.03.69-.7,1.39-1.39,2.1-2.07.65-.64,1.32-1.27,1.99-1.9.42-.4.84-.79,1.27-1.18,10.6-9.72,23.37-18.99,37.74-27.51,1.02-.61,2.06-1.21,3.1-1.81,10.42-6,21.64-11.62,33.47-16.72.89-.38,1.77-.76,2.67-1.14,2.67-1.13,5.38-2.23,8.12-3.31.02-.01.03-.01.04-.02,1.82-.72,3.65-1.42,5.49-2.11,1.84-.69,3.69-1.37,5.56-2.03.02-.01.03-.01.04-.02,1.24-.44,2.48-.87,3.72-1.3,1.11-.38,2.23-.76,3.34-1.14,2.13-.71,4.27-1.41,6.39-2.08,3.4-1.07,6.78-2.08,10.14-3.04,1.1-.31,2.19-.61,3.28-.91.89-.25,1.79-.49,2.68-.72.99-.27,1.98-.53,2.97-.78,1.15-.3,2.29-.59,3.42-.86,2.13-.52,4.25-1.02,6.36-1.5,2.69-.61,5.36-1.18,8.02-1.71,24.23-4.85,46.78-6.47,66.14-5.02.15.01.31.02.46.03.51.04,1.01.08,1.52.12.5.04,1,.08,1.5.13.99.1,1.98.2,2.95.31.9.1,1.79.2,2.67.32.62.09,1.23.17,1.84.26,1.77.26,3.51.55,5.21.86,24.59,4.59,41.88,15.26,47.55,31.64l4.3,12.45,6.42,18.56.97,2.79.96,2.79,22.48,65.01c.08.23.15.47.19.7.44,2.35-.89,4.73-3.21,5.53Z"/>
  <path class="cls-3" d="M1772.74,624.24c52.69-18.55,155.89-34.46,172.04,12.25,12.26,35.47-44.05,87.05-125.9,115.32-81.85,28.27-157.93,22.56-170.22-12.89-16.04-46.53,72.62-96.57,124.08-114.68h0Z"/>
  <path class="cls-3" d="M1949.63,635.56c-.07-.22-.14-.45-.22-.67-2.17-6.29-5.78-11.75-10.78-16.35-2.1-1.93-4.44-3.7-7.03-5.33-1.75-1.09-3.61-2.12-5.59-3.07-13.7-6.61-31.59-9.23-50.82-9.23-11.09,0-22.62.87-34.05,2.35l-.86.11c-25.77,3.39-50.92,9.82-69.17,16.25-18.82,6.63-44.66,18.27-68.49,33.34-4.74,2.99-9.4,6.12-13.91,9.38-.48.35-.97.7-1.45,1.04-.44.33-.88.65-1.32.98-1.2.89-2.38,1.78-3.55,2.69-19.76,15.3-32.43,30.58-37.71,45.24-1.03,2.86-1.78,5.69-2.25,8.5-1.02,6.18-.67,12.22,1.07,18.09.01.02.01.04.02.06.16.53.33,1.05.51,1.58,7.79,22.46,37.43,34.2,77.79,34.2,28.78-.01,63.03-5.98,98.66-18.28,40.21-13.89,75.71-33.77,99.96-55.98,25-22.9,35.34-45.92,29.19-64.9ZM1913.82,693.24c-23.28,21.32-57.57,40.48-96.53,53.94-38.99,13.46-77.78,19.57-109.24,17.19-29.29-2.21-49.15-11.89-54.59-26.57-.06-.16-.11-.32-.17-.48t-.01-.02c-.15-.43-.28-.87-.4-1.3-6.06-20.58,11.59-43.24,37.83-63.05.87-.66,1.74-1.31,2.63-1.96,1.55-1.13,3.12-2.26,4.72-3.37,1.34-.93,2.69-1.85,4.06-2.76,6.56-4.39,13.46-8.58,20.53-12.53,0,0,.02-.01.03-.01,5.7-3.19,11.51-6.21,17.33-9.03l.92-.45c1.31-.63,2.62-1.25,3.93-1.86,1.32-.62,2.63-1.22,3.94-1.82.15-.06.3-.13.45-.2,8.58-3.86,17.06-7.27,25.12-10.1,2.96-1.04,6.15-2.1,9.52-3.14,17.86-5.51,40.96-10.78,64.03-13.36,1.15-.12,2.3-.24,3.44-.35,1.74-.18,3.47-.34,5.2-.47,1.65-.14,3.3-.26,4.93-.36,3.08-.2,6.14-.33,9.17-.39,1.65-.05,3.28-.07,4.91-.07,17.67,0,33.96,2.34,46.18,8.24,9.38,4.53,15.58,10.96,18.4,19.11t0,.02c5.18,14.97-4.42,35.07-26.34,55.15Z"/>
</svg>